<svg width="107.333496" height="16.000000" viewBox="0 0 107.333 16" fill="none" xmlns="http://www.w3.org/2000/svg" xmlns:xlink="http://www.w3.org/1999/xlink">
	<desc>
			Created with Pixso.
	</desc>
	<defs>
		<clipPath id="clip2_591">
			<rect id="Frame" width="16.000000" height="16.000000" fill="white" fill-opacity="0"/>
		</clipPath>
		<clipPath id="clip2_594">
			<rect id="Frame" width="16.000000" height="16.000000" transform="translate(18.000000 0.000000)" fill="white" fill-opacity="0"/>
		</clipPath>
		<clipPath id="clip2_597">
			<rect id="Frame" width="16.000000" height="16.000000" transform="translate(36.000000 0.000000)" fill="white" fill-opacity="0"/>
		</clipPath>
		<clipPath id="clip2_600">
			<rect id="Frame" width="16.000000" height="16.000000" transform="translate(54.000000 0.000000)" fill="white" fill-opacity="0"/>
		</clipPath>
		<clipPath id="clip2_603">
			<rect id="Frame" width="16.000000" height="16.000000" transform="translate(72.000000 0.000000)" fill="white" fill-opacity="0"/>
		</clipPath>
	</defs>
	<rect id="Frame" width="16.000000" height="16.000000" fill="#FFFFFF" fill-opacity="0"/>
	<g clip-path="url(#clip2_591)">
		<path id="Vector" d="M5.4953 4.89328L1.24194 5.50995L1.16663 5.52528C1.05261 5.55556 0.948608 5.61555 0.865356 5.69914C0.782104 5.78275 0.722473 5.88695 0.692688 6.0011C0.662842 6.11526 0.663879 6.23529 0.695557 6.34894C0.727295 6.46257 0.788635 6.56577 0.873291 6.64795L3.95465 9.64728L3.22797 13.8839L3.2193 13.9573C3.21234 14.0752 3.23682 14.1929 3.29028 14.2983C3.34375 14.4037 3.42419 14.4929 3.5235 14.557C3.6228 14.621 3.73737 14.6575 3.85541 14.6627C3.97345 14.6679 4.09076 14.6416 4.19531 14.5866L7.99933 12.5866L11.7946 14.5866L11.8613 14.6173C11.9713 14.6606 12.0909 14.6739 12.2078 14.6558C12.3246 14.6377 12.4346 14.5888 12.5264 14.5141C12.6181 14.4395 12.6884 14.3418 12.7299 14.231C12.7714 14.1203 12.7827 14.0005 12.7626 13.8839L12.0353 9.64728L15.118 6.64728L15.17 6.59062C15.2443 6.49913 15.293 6.38959 15.3111 6.27315C15.3293 6.15671 15.3162 6.03754 15.2734 5.92776C15.2305 5.81801 15.1592 5.72157 15.067 5.64828C14.9747 5.57501 14.8646 5.52751 14.748 5.51062L10.4946 4.89328L8.59332 1.03995C8.53827 0.928299 8.45312 0.83429 8.34741 0.768555C8.24176 0.702805 8.11975 0.667969 7.9953 0.667969C7.87085 0.667969 7.74884 0.702805 7.64319 0.768555C7.53748 0.83429 7.45233 0.928299 7.39728 1.03995L5.4953 4.89328Z" fill="#000000" fill-opacity="1.000000" fill-rule="nonzero"/>
		<path id="Vector" d="M1.24194 5.50995L1.16663 5.52528C1.05261 5.55556 0.948608 5.61555 0.865356 5.69914C0.782104 5.78275 0.722473 5.88695 0.692688 6.0011C0.662842 6.11526 0.663879 6.23529 0.695557 6.34894C0.727295 6.46257 0.788635 6.56577 0.873291 6.64795L3.95465 9.64728L3.22797 13.8839L3.2193 13.9573C3.21234 14.0752 3.23682 14.1929 3.29028 14.2983C3.34375 14.4037 3.42419 14.4929 3.5235 14.557C3.6228 14.621 3.73737 14.6575 3.85541 14.6627C3.97345 14.6679 4.09076 14.6416 4.19531 14.5866L7.99933 12.5866L11.7946 14.5866L11.8613 14.6173C11.9713 14.6606 12.0909 14.6739 12.2078 14.6558C12.3246 14.6377 12.4346 14.5888 12.5264 14.5141C12.6181 14.4395 12.6884 14.3418 12.7299 14.231C12.7714 14.1203 12.7827 14.0005 12.7626 13.8839L12.0353 9.64728L15.118 6.64728L15.17 6.59062C15.2443 6.49913 15.293 6.38959 15.3111 6.27315C15.3293 6.15671 15.3162 6.03754 15.2734 5.92776C15.2305 5.81801 15.1592 5.72157 15.067 5.64828C14.9747 5.57501 14.8646 5.52751 14.748 5.51062L10.4946 4.89328L8.59332 1.03995C8.53827 0.928299 8.45312 0.83429 8.34741 0.768555C8.24176 0.702805 8.11975 0.667969 7.9953 0.667969C7.87085 0.667969 7.74884 0.702805 7.64319 0.768555C7.53748 0.83429 7.45233 0.928299 7.39728 1.03995L5.4953 4.89328L1.24194 5.50995Z" stroke="#000000" stroke-opacity="1.000000" stroke-width="0.000000" stroke-linejoin="round"/>
	</g>
	<rect id="Frame" width="16.000000" height="16.000000" transform="translate(18.000000 0.000000)" fill="#FFFFFF" fill-opacity="0"/>
	<g clip-path="url(#clip2_594)">
		<path id="Vector" d="M23.4953 4.89328L19.2419 5.50995L19.1666 5.52528C19.0526 5.55556 18.9486 5.61555 18.8654 5.69914C18.7821 5.78275 18.7225 5.88695 18.6927 6.0011C18.6628 6.11526 18.6639 6.23529 18.6956 6.34894C18.7273 6.46257 18.7886 6.56577 18.8733 6.64795L21.9547 9.64728L21.228 13.8839L21.2193 13.9573C21.2123 14.0752 21.2368 14.1929 21.2903 14.2983C21.3438 14.4037 21.4242 14.4929 21.5235 14.557C21.6228 14.621 21.7374 14.6575 21.8554 14.6627C21.9734 14.6679 22.0908 14.6416 22.1953 14.5866L25.9993 12.5866L29.7946 14.5866L29.8613 14.6173C29.9713 14.6606 30.0909 14.6739 30.2078 14.6558C30.3246 14.6377 30.4346 14.5888 30.5264 14.5141C30.6181 14.4395 30.6884 14.3418 30.7299 14.231C30.7714 14.1203 30.7827 14.0005 30.7626 13.8839L30.0353 9.64728L33.118 6.64728L33.17 6.59062C33.2443 6.49913 33.293 6.38959 33.3111 6.27315C33.3293 6.15671 33.3162 6.03754 33.2734 5.92776C33.2305 5.81801 33.1592 5.72157 33.067 5.64828C32.9747 5.57501 32.8646 5.52751 32.748 5.51062L28.4946 4.89328L26.5933 1.03995C26.5383 0.928299 26.4531 0.83429 26.3474 0.768555C26.2418 0.702805 26.1198 0.667969 25.9953 0.667969C25.8708 0.667969 25.7488 0.702805 25.6432 0.768555C25.5375 0.83429 25.4523 0.928299 25.3973 1.03995L23.4953 4.89328Z" fill="#000000" fill-opacity="1.000000" fill-rule="nonzero"/>
		<path id="Vector" d="M19.2419 5.50995L19.1666 5.52528C19.0526 5.55556 18.9486 5.61555 18.8654 5.69914C18.7821 5.78275 18.7225 5.88695 18.6927 6.0011C18.6628 6.11526 18.6639 6.23529 18.6956 6.34894C18.7273 6.46257 18.7886 6.56577 18.8733 6.64795L21.9547 9.64728L21.228 13.8839L21.2193 13.9573C21.2123 14.0752 21.2368 14.1929 21.2903 14.2983C21.3438 14.4037 21.4242 14.4929 21.5235 14.557C21.6228 14.621 21.7374 14.6575 21.8554 14.6627C21.9734 14.6679 22.0908 14.6416 22.1953 14.5866L25.9993 12.5866L29.7946 14.5866L29.8613 14.6173C29.9713 14.6606 30.0909 14.6739 30.2078 14.6558C30.3246 14.6377 30.4346 14.5888 30.5264 14.5141C30.6181 14.4395 30.6884 14.3418 30.7299 14.231C30.7714 14.1203 30.7827 14.0005 30.7626 13.8839L30.0353 9.64728L33.118 6.64728L33.17 6.59062C33.2443 6.49913 33.293 6.38959 33.3111 6.27315C33.3293 6.15671 33.3162 6.03754 33.2734 5.92776C33.2305 5.81801 33.1592 5.72157 33.067 5.64828C32.9747 5.57501 32.8646 5.52751 32.748 5.51062L28.4946 4.89328L26.5933 1.03995C26.5383 0.928299 26.4531 0.83429 26.3474 0.768555C26.2418 0.702805 26.1198 0.667969 25.9953 0.667969C25.8708 0.667969 25.7488 0.702805 25.6432 0.768555C25.5375 0.83429 25.4523 0.928299 25.3973 1.03995L23.4953 4.89328L19.2419 5.50995Z" stroke="#000000" stroke-opacity="1.000000" stroke-width="0.000000" stroke-linejoin="round"/>
	</g>
	<rect id="Frame" width="16.000000" height="16.000000" transform="translate(36.000000 0.000000)" fill="#FFFFFF" fill-opacity="0"/>
	<g clip-path="url(#clip2_597)">
		<path id="Vector" d="M41.4953 4.89328L37.2419 5.50995L37.1666 5.52528C37.0526 5.55556 36.9486 5.61555 36.8654 5.69914C36.7821 5.78275 36.7225 5.88695 36.6927 6.0011C36.6628 6.11526 36.6639 6.23529 36.6956 6.34894C36.7273 6.46257 36.7886 6.56577 36.8733 6.64795L39.9547 9.64728L39.228 13.8839L39.2193 13.9573C39.2123 14.0752 39.2368 14.1929 39.2903 14.2983C39.3438 14.4037 39.4242 14.4929 39.5235 14.557C39.6228 14.621 39.7374 14.6575 39.8554 14.6627C39.9734 14.6679 40.0908 14.6416 40.1953 14.5866L43.9993 12.5866L47.7946 14.5866L47.8613 14.6173C47.9713 14.6606 48.0909 14.6739 48.2078 14.6558C48.3246 14.6377 48.4346 14.5888 48.5264 14.5141C48.6181 14.4395 48.6884 14.3418 48.7299 14.231C48.7714 14.1203 48.7827 14.0005 48.7626 13.8839L48.0353 9.64728L51.118 6.64728L51.17 6.59062C51.2443 6.49913 51.293 6.38959 51.3111 6.27315C51.3293 6.15671 51.3162 6.03754 51.2734 5.92776C51.2305 5.81801 51.1592 5.72157 51.067 5.64828C50.9747 5.57501 50.8646 5.52751 50.748 5.51062L46.4946 4.89328L44.5933 1.03995C44.5383 0.928299 44.4531 0.83429 44.3474 0.768555C44.2418 0.702805 44.1198 0.667969 43.9953 0.667969C43.8708 0.667969 43.7488 0.702805 43.6432 0.768555C43.5375 0.83429 43.4523 0.928299 43.3973 1.03995L41.4953 4.89328Z" fill="#000000" fill-opacity="1.000000" fill-rule="nonzero"/>
		<path id="Vector" d="M37.2419 5.50995L37.1666 5.52528C37.0526 5.55556 36.9486 5.61555 36.8654 5.69914C36.7821 5.78275 36.7225 5.88695 36.6927 6.0011C36.6628 6.11526 36.6639 6.23529 36.6956 6.34894C36.7273 6.46257 36.7886 6.56577 36.8733 6.64795L39.9547 9.64728L39.228 13.8839L39.2193 13.9573C39.2123 14.0752 39.2368 14.1929 39.2903 14.2983C39.3438 14.4037 39.4242 14.4929 39.5235 14.557C39.6228 14.621 39.7374 14.6575 39.8554 14.6627C39.9734 14.6679 40.0908 14.6416 40.1953 14.5866L43.9993 12.5866L47.7946 14.5866L47.8613 14.6173C47.9713 14.6606 48.0909 14.6739 48.2078 14.6558C48.3246 14.6377 48.4346 14.5888 48.5264 14.5141C48.6181 14.4395 48.6884 14.3418 48.7299 14.231C48.7714 14.1203 48.7827 14.0005 48.7626 13.8839L48.0353 9.64728L51.118 6.64728L51.17 6.59062C51.2443 6.49913 51.293 6.38959 51.3111 6.27315C51.3293 6.15671 51.3162 6.03754 51.2734 5.92776C51.2305 5.81801 51.1592 5.72157 51.067 5.64828C50.9747 5.57501 50.8646 5.52751 50.748 5.51062L46.4946 4.89328L44.5933 1.03995C44.5383 0.928299 44.4531 0.83429 44.3474 0.768555C44.2418 0.702805 44.1198 0.667969 43.9953 0.667969C43.8708 0.667969 43.7488 0.702805 43.6432 0.768555C43.5375 0.83429 43.4523 0.928299 43.3973 1.03995L41.4953 4.89328L37.2419 5.50995Z" stroke="#000000" stroke-opacity="1.000000" stroke-width="0.000000" stroke-linejoin="round"/>
	</g>
	<rect id="Frame" width="16.000000" height="16.000000" transform="translate(54.000000 0.000000)" fill="#FFFFFF" fill-opacity="0"/>
	<g clip-path="url(#clip2_600)">
		<path id="Vector" d="M59.4953 4.89328L55.2419 5.50995L55.1666 5.52528C55.0526 5.55556 54.9486 5.61555 54.8654 5.69914C54.7821 5.78275 54.7225 5.88695 54.6927 6.0011C54.6628 6.11526 54.6639 6.23529 54.6956 6.34894C54.7273 6.46257 54.7886 6.56577 54.8733 6.64795L57.9547 9.64728L57.228 13.8839L57.2193 13.9573C57.2123 14.0752 57.2368 14.1929 57.2903 14.2983C57.3438 14.4037 57.4242 14.4929 57.5235 14.557C57.6228 14.621 57.7374 14.6575 57.8554 14.6627C57.9734 14.6679 58.0908 14.6416 58.1953 14.5866L61.9993 12.5866L65.7946 14.5866L65.8613 14.6173C65.9713 14.6606 66.0909 14.6739 66.2078 14.6558C66.3246 14.6377 66.4346 14.5888 66.5264 14.5141C66.6181 14.4395 66.6884 14.3418 66.7299 14.231C66.7714 14.1203 66.7827 14.0005 66.7626 13.8839L66.0353 9.64728L69.118 6.64728L69.17 6.59062C69.2443 6.49913 69.293 6.38959 69.3111 6.27315C69.3293 6.15671 69.3162 6.03754 69.2734 5.92776C69.2305 5.81801 69.1592 5.72157 69.067 5.64828C68.9747 5.57501 68.8646 5.52751 68.748 5.51062L64.4946 4.89328L62.5933 1.03995C62.5383 0.928299 62.4531 0.83429 62.3474 0.768555C62.2418 0.702805 62.1198 0.667969 61.9953 0.667969C61.8708 0.667969 61.7488 0.702805 61.6432 0.768555C61.5375 0.83429 61.4523 0.928299 61.3973 1.03995L59.4953 4.89328Z" fill="#000000" fill-opacity="1.000000" fill-rule="nonzero"/>
		<path id="Vector" d="M55.2419 5.50995L55.1666 5.52528C55.0526 5.55556 54.9486 5.61555 54.8654 5.69914C54.7821 5.78275 54.7225 5.88695 54.6927 6.0011C54.6628 6.11526 54.6639 6.23529 54.6956 6.34894C54.7273 6.46257 54.7886 6.56577 54.8733 6.64795L57.9547 9.64728L57.228 13.8839L57.2193 13.9573C57.2123 14.0752 57.2368 14.1929 57.2903 14.2983C57.3438 14.4037 57.4242 14.4929 57.5235 14.557C57.6228 14.621 57.7374 14.6575 57.8554 14.6627C57.9734 14.6679 58.0908 14.6416 58.1953 14.5866L61.9993 12.5866L65.7946 14.5866L65.8613 14.6173C65.9713 14.6606 66.0909 14.6739 66.2078 14.6558C66.3246 14.6377 66.4346 14.5888 66.5264 14.5141C66.6181 14.4395 66.6884 14.3418 66.7299 14.231C66.7714 14.1203 66.7827 14.0005 66.7626 13.8839L66.0353 9.64728L69.118 6.64728L69.17 6.59062C69.2443 6.49913 69.293 6.38959 69.3111 6.27315C69.3293 6.15671 69.3162 6.03754 69.2734 5.92776C69.2305 5.81801 69.1592 5.72157 69.067 5.64828C68.9747 5.57501 68.8646 5.52751 68.748 5.51062L64.4946 4.89328L62.5933 1.03995C62.5383 0.928299 62.4531 0.83429 62.3474 0.768555C62.2418 0.702805 62.1198 0.667969 61.9953 0.667969C61.8708 0.667969 61.7488 0.702805 61.6432 0.768555C61.5375 0.83429 61.4523 0.928299 61.3973 1.03995L59.4953 4.89328L55.2419 5.50995Z" stroke="#000000" stroke-opacity="1.000000" stroke-width="0.000000" stroke-linejoin="round"/>
	</g>
	<rect id="Frame" width="16.000000" height="16.000000" transform="translate(72.000000 0.000000)" fill="#FFFFFF" fill-opacity="0"/>
	<g clip-path="url(#clip2_603)">
		<path id="Vector" d="M77.4953 4.89328L73.2419 5.50995L73.1666 5.52528C73.0526 5.55556 72.9486 5.61555 72.8654 5.69914C72.7821 5.78275 72.7225 5.88695 72.6927 6.0011C72.6628 6.11526 72.6639 6.23529 72.6956 6.34894C72.7273 6.46257 72.7886 6.56577 72.8733 6.64795L75.9547 9.64728L75.228 13.8839L75.2193 13.9573C75.2123 14.0752 75.2368 14.1929 75.2903 14.2983C75.3438 14.4037 75.4242 14.4929 75.5235 14.557C75.6228 14.621 75.7374 14.6575 75.8554 14.6627C75.9734 14.6679 76.0908 14.6416 76.1953 14.5866L79.9993 12.5866L83.7946 14.5866L83.8613 14.6173C83.9713 14.6606 84.0909 14.6739 84.2078 14.6558C84.3246 14.6377 84.4346 14.5888 84.5264 14.5141C84.6181 14.4395 84.6884 14.3418 84.7299 14.231C84.7714 14.1203 84.7827 14.0005 84.7626 13.8839L84.0353 9.64728L87.118 6.64728L87.17 6.59062C87.2443 6.49913 87.293 6.38959 87.3111 6.27315C87.3293 6.15671 87.3162 6.03754 87.2734 5.92776C87.2305 5.81801 87.1592 5.72157 87.067 5.64828C86.9747 5.57501 86.8646 5.52751 86.748 5.51062L82.4946 4.89328L80.5933 1.03995C80.5383 0.928299 80.4531 0.83429 80.3474 0.768555C80.2418 0.702805 80.1198 0.667969 79.9953 0.667969C79.8708 0.667969 79.7488 0.702805 79.6432 0.768555C79.5375 0.83429 79.4523 0.928299 79.3973 1.03995L77.4953 4.89328Z" fill="#C5C5C5" fill-opacity="1.000000" fill-rule="nonzero"/>
		<path id="Vector" d="M73.2419 5.50995L73.1666 5.52528C73.0526 5.55556 72.9486 5.61555 72.8654 5.69914C72.7821 5.78275 72.7225 5.88695 72.6927 6.0011C72.6628 6.11526 72.6639 6.23529 72.6956 6.34894C72.7273 6.46257 72.7886 6.56577 72.8733 6.64795L75.9547 9.64728L75.228 13.8839L75.2193 13.9573C75.2123 14.0752 75.2368 14.1929 75.2903 14.2983C75.3438 14.4037 75.4242 14.4929 75.5235 14.557C75.6228 14.621 75.7374 14.6575 75.8554 14.6627C75.9734 14.6679 76.0908 14.6416 76.1953 14.5866L79.9993 12.5866L83.7946 14.5866L83.8613 14.6173C83.9713 14.6606 84.0909 14.6739 84.2078 14.6558C84.3246 14.6377 84.4346 14.5888 84.5264 14.5141C84.6181 14.4395 84.6884 14.3418 84.7299 14.231C84.7714 14.1203 84.7827 14.0005 84.7626 13.8839L84.0353 9.64728L87.118 6.64728L87.17 6.59062C87.2443 6.49913 87.293 6.38959 87.3111 6.27315C87.3293 6.15671 87.3162 6.03754 87.2734 5.92776C87.2305 5.81801 87.1592 5.72157 87.067 5.64828C86.9747 5.57501 86.8646 5.52751 86.748 5.51062L82.4946 4.89328L80.5933 1.03995C80.5383 0.928299 80.4531 0.83429 80.3474 0.768555C80.2418 0.702805 80.1198 0.667969 79.9953 0.667969C79.8708 0.667969 79.7488 0.702805 79.6432 0.768555C79.5375 0.83429 79.4523 0.928299 79.3973 1.03995L77.4953 4.89328L73.2419 5.50995Z" stroke="#C5C5C5" stroke-opacity="1.000000" stroke-width="0.000000" stroke-linejoin="round"/>
	</g>
	<path id="Vector" d="M104 4.66663C104.653 4.6666 105.292 4.85841 105.837 5.21829C106.382 5.57817 106.809 6.09023 107.066 6.69087C107.322 7.2915 107.397 7.95427 107.28 8.59683C107.163 9.2394 106.859 9.83345 106.408 10.3052C105.956 10.7769 105.376 11.1056 104.739 11.2504C104.102 11.3951 103.437 11.3496 102.826 11.1195C102.214 10.8893 101.684 10.4847 101.301 9.9558C100.918 9.42693 100.698 8.79713 100.67 8.14462L100.667 7.99995L100.67 7.85529C100.707 6.99713 101.074 6.18648 101.695 5.59239C102.315 4.99832 103.141 4.66667 104 4.66663Z" fill="#000000" fill-opacity="1.000000" fill-rule="nonzero"/>
	<path id="Vector" d="M105.837 5.21829C106.382 5.57817 106.809 6.09023 107.066 6.69087C107.322 7.2915 107.397 7.95427 107.28 8.59683C107.163 9.2394 106.859 9.83345 106.408 10.3052C105.956 10.7769 105.376 11.1056 104.739 11.2504C104.102 11.3951 103.437 11.3496 102.826 11.1195C102.214 10.8893 101.684 10.4847 101.301 9.9558C100.918 9.42693 100.698 8.79713 100.67 8.14462L100.667 7.99995L100.67 7.85529C100.707 6.99713 101.074 6.18648 101.695 5.59239C102.315 4.99832 103.141 4.66667 104 4.66663C104.653 4.6666 105.292 4.85841 105.837 5.21829Z" stroke="#000000" stroke-opacity="1.000000" stroke-width="0.000000" stroke-linejoin="round"/>
</svg>
