<svg width="91" height="34" viewBox="0 0 91 34" fill="none" xmlns="http://www.w3.org/2000/svg">
<path d="M0.988 26V0.799998H6.82V21.248H19.456V26H0.988ZM31.4643 26.288C29.4003 26.288 27.5643 25.856 25.9563 24.992C24.3723 24.128 23.1123 22.952 22.1763 21.464C21.2643 19.952 20.8083 18.236 20.8083 16.316C20.8083 14.372 21.2643 12.656 22.1763 11.168C23.1123 9.656 24.3723 8.48 25.9563 7.64C27.5643 6.776 29.4003 6.344 31.4643 6.344C33.5043 6.344 35.3283 6.776 36.9363 7.64C38.5443 8.48 39.8043 9.644 40.7163 11.132C41.6283 12.62 42.0843 14.348 42.0843 16.316C42.0843 18.236 41.6283 19.952 40.7163 21.464C39.8043 22.952 38.5443 24.128 36.9363 24.992C35.3283 25.856 33.5043 26.288 31.4643 26.288ZM31.4643 21.68C32.4003 21.68 33.2403 21.464 33.9843 21.032C34.7283 20.6 35.3163 19.988 35.7483 19.196C36.1803 18.38 36.3963 17.42 36.3963 16.316C36.3963 15.188 36.1803 14.228 35.7483 13.436C35.3163 12.644 34.7283 12.032 33.9843 11.6C33.2403 11.168 32.4003 10.952 31.4643 10.952C30.5283 10.952 29.6883 11.168 28.9443 11.6C28.2003 12.032 27.6003 12.644 27.1443 13.436C26.7123 14.228 26.4963 15.188 26.4963 16.316C26.4963 17.42 26.7123 18.38 27.1443 19.196C27.6003 19.988 28.2003 20.6 28.9443 21.032C29.6883 21.464 30.5283 21.68 31.4643 21.68ZM54.9461 33.272C53.1221 33.272 51.3581 33.044 49.6541 32.588C47.9741 32.156 46.5701 31.496 45.4421 30.608L47.6741 26.576C48.4901 27.248 49.5221 27.776 50.7701 28.16C52.0421 28.568 53.2901 28.772 54.5141 28.772C56.5061 28.772 57.9461 28.328 58.8341 27.44C59.7461 26.552 60.2021 25.232 60.2021 23.48V20.564L60.5621 15.704L60.4901 10.808V6.632H65.8181V22.76C65.8181 26.36 64.8821 29.012 63.0101 30.716C61.1381 32.42 58.4501 33.272 54.9461 33.272ZM54.0821 25.064C52.2821 25.064 50.6501 24.68 49.1861 23.912C47.7461 23.12 46.5821 22.028 45.6941 20.636C44.8301 19.22 44.3981 17.576 44.3981 15.704C44.3981 13.808 44.8301 12.164 45.6941 10.772C46.5821 9.356 47.7461 8.264 49.1861 7.496C50.6501 6.728 52.2821 6.344 54.0821 6.344C55.7141 6.344 57.1541 6.68 58.4021 7.352C59.6501 8 60.6221 9.02 61.3181 10.412C62.0141 11.78 62.3621 13.544 62.3621 15.704C62.3621 17.84 62.0141 19.604 61.3181 20.996C60.6221 22.364 59.6501 23.384 58.4021 24.056C57.1541 24.728 55.7141 25.064 54.0821 25.064ZM55.1981 20.456C56.1821 20.456 57.0581 20.264 57.8261 19.88C58.5941 19.472 59.1941 18.908 59.6261 18.188C60.0581 17.468 60.2741 16.64 60.2741 15.704C60.2741 14.744 60.0581 13.916 59.6261 13.22C59.1941 12.5 58.5941 11.948 57.8261 11.564C57.0581 11.156 56.1821 10.952 55.1981 10.952C54.2141 10.952 53.3381 11.156 52.5701 11.564C51.8021 11.948 51.1901 12.5 50.7341 13.22C50.3021 13.916 50.0861 14.744 50.0861 15.704C50.0861 16.64 50.3021 17.468 50.7341 18.188C51.1901 18.908 51.8021 19.472 52.5701 19.88C53.3381 20.264 54.2141 20.456 55.1981 20.456ZM80.2611 26.288C78.1971 26.288 76.3611 25.856 74.7531 24.992C73.1691 24.128 71.9091 22.952 70.9731 21.464C70.0611 19.952 69.6051 18.236 69.6051 16.316C69.6051 14.372 70.0611 12.656 70.9731 11.168C71.9091 9.656 73.1691 8.48 74.7531 7.64C76.3611 6.776 78.1971 6.344 80.2611 6.344C82.3011 6.344 84.1251 6.776 85.7331 7.64C87.3411 8.48 88.6011 9.644 89.5131 11.132C90.4251 12.62 90.8811 14.348 90.8811 16.316C90.8811 18.236 90.4251 19.952 89.5131 21.464C88.6011 22.952 87.3411 24.128 85.7331 24.992C84.1251 25.856 82.3011 26.288 80.2611 26.288ZM80.2611 21.68C81.1971 21.68 82.0371 21.464 82.7811 21.032C83.5251 20.6 84.1131 19.988 84.5451 19.196C84.9771 18.38 85.1931 17.42 85.1931 16.316C85.1931 15.188 84.9771 14.228 84.5451 13.436C84.1131 12.644 83.5251 12.032 82.7811 11.6C82.0371 11.168 81.1971 10.952 80.2611 10.952C79.3251 10.952 78.4851 11.168 77.7411 11.6C76.9971 12.032 76.3971 12.644 75.9411 13.436C75.5091 14.228 75.2931 15.188 75.2931 16.316C75.2931 17.42 75.5091 18.38 75.9411 19.196C76.3971 19.988 76.9971 20.6 77.7411 21.032C78.4851 21.464 79.3251 21.68 80.2611 21.68Z" fill="black"/>
</svg>
