<svg width="88.000000" height="16.000000" viewBox="0 0 88 16" fill="none" xmlns="http://www.w3.org/2000/svg" xmlns:xlink="http://www.w3.org/1999/xlink">
	<desc>
			Created with Pixso.
	</desc>
	<defs>
		<clipPath id="clip3_14">
			<rect id="Frame" width="16.000000" height="16.000000" fill="white" fill-opacity="0"/>
		</clipPath>
		<clipPath id="clip3_17">
			<rect id="Frame" width="16.000000" height="16.000000" transform="translate(18.000000 0.000000)" fill="white" fill-opacity="0"/>
		</clipPath>
		<clipPath id="clip3_20">
			<rect id="Frame" width="16.000000" height="16.000000" transform="translate(36.000000 0.000000)" fill="white" fill-opacity="0"/>
		</clipPath>
		<clipPath id="clip3_23">
			<rect id="Frame" width="16.000000" height="16.000000" transform="translate(54.000000 0.000000)" fill="white" fill-opacity="0"/>
		</clipPath>
		<clipPath id="clip3_26">
			<rect id="Frame" width="16.000000" height="16.000000" transform="translate(72.000000 0.000000)" fill="white" fill-opacity="0"/>
		</clipPath>
	</defs>
	<rect id="Frame" width="16.000000" height="16.000000" fill="#FFFFFF" fill-opacity="0"/>
	<g clip-path="url(#clip3_14)">
		<path id="Vector" d="M5.49533 4.89328L1.24199 5.50995L1.16666 5.52528C1.05263 5.55556 0.948654 5.61555 0.865387 5.69915C0.78212 5.78275 0.722534 5.88694 0.692703 6.0011C0.662872 6.11526 0.663879 6.23529 0.695618 6.34893C0.727356 6.46257 0.788681 6.56576 0.873337 6.64795L3.95467 9.64728L3.228 13.8839L3.21933 13.9573C3.21234 14.0752 3.23685 14.1929 3.2903 14.2983C3.34375 14.4037 3.42426 14.4929 3.52356 14.557C3.62285 14.621 3.7374 14.6575 3.85542 14.6627C3.97346 14.6679 4.09077 14.6416 4.19533 14.5866L7.99933 12.5866L11.7947 14.5866L11.8613 14.6173C11.9714 14.6606 12.091 14.6739 12.2078 14.6558C12.3247 14.6377 12.4346 14.5888 12.5264 14.5141C12.6181 14.4395 12.6884 14.3418 12.7299 14.231C12.7714 14.1203 12.7827 14.0005 12.7627 13.8839L12.0353 9.64728L15.118 6.64728L15.17 6.59061C15.2443 6.49913 15.293 6.38959 15.3111 6.27315C15.3293 6.15671 15.3163 6.03754 15.2734 5.92776C15.2305 5.818 15.1593 5.72157 15.067 5.64829C14.9747 5.57501 14.8646 5.5275 14.748 5.51061L10.4947 4.89328L8.59332 1.03995C8.53831 0.928307 8.45314 0.83429 8.34746 0.768555C8.24178 0.702812 8.1198 0.667969 7.99533 0.667969C7.87086 0.667969 7.74889 0.702812 7.6432 0.768555C7.53752 0.83429 7.45235 0.928307 7.39732 1.03995L5.49533 4.89328Z" fill="#000000" fill-opacity="1.000000" fill-rule="nonzero"/>
		<path id="Vector" d="M1.24199 5.50995L1.16666 5.52528C1.05263 5.55556 0.948654 5.61555 0.865387 5.69915C0.78212 5.78275 0.722534 5.88694 0.692703 6.0011C0.662872 6.11526 0.663879 6.23529 0.695618 6.34893C0.727356 6.46257 0.788681 6.56576 0.873337 6.64795L3.95467 9.64728L3.228 13.8839L3.21933 13.9573C3.21234 14.0752 3.23685 14.1929 3.2903 14.2983C3.34375 14.4037 3.42426 14.4929 3.52356 14.557C3.62285 14.621 3.7374 14.6575 3.85542 14.6627C3.97346 14.6679 4.09077 14.6416 4.19533 14.5866L7.99933 12.5866L11.7947 14.5866L11.8613 14.6173C11.9714 14.6606 12.091 14.6739 12.2078 14.6558C12.3247 14.6377 12.4346 14.5888 12.5264 14.5141C12.6181 14.4395 12.6884 14.3418 12.7299 14.231C12.7714 14.1203 12.7827 14.0005 12.7627 13.8839L12.0353 9.64728L15.118 6.64728L15.17 6.59061C15.2443 6.49913 15.293 6.38959 15.3111 6.27315C15.3293 6.15671 15.3163 6.03754 15.2734 5.92776C15.2305 5.818 15.1593 5.72157 15.067 5.64829C14.9747 5.57501 14.8646 5.5275 14.748 5.51061L10.4947 4.89328L8.59332 1.03995C8.53831 0.928307 8.45314 0.83429 8.34746 0.768555C8.24178 0.702812 8.1198 0.667969 7.99533 0.667969C7.87086 0.667969 7.74889 0.702812 7.6432 0.768555C7.53752 0.83429 7.45235 0.928307 7.39732 1.03995L5.49533 4.89328L1.24199 5.50995Z" stroke="#000000" stroke-opacity="1.000000" stroke-width="0.000000" stroke-linejoin="round"/>
	</g>
	<rect id="Frame" width="16.000000" height="16.000000" transform="translate(18.000000 0.000000)" fill="#FFFFFF" fill-opacity="0"/>
	<g clip-path="url(#clip3_17)">
		<path id="Vector" d="M23.4953 4.89328L19.242 5.50995L19.1667 5.52528C19.0526 5.55556 18.9487 5.61555 18.8654 5.69915C18.7821 5.78275 18.7225 5.88694 18.6927 6.0011C18.6629 6.11526 18.6639 6.23529 18.6956 6.34893C18.7274 6.46257 18.7887 6.56576 18.8733 6.64795L21.9547 9.64728L21.228 13.8839L21.2193 13.9573C21.2123 14.0752 21.2368 14.1929 21.2903 14.2983C21.3438 14.4037 21.4243 14.4929 21.5236 14.557C21.6228 14.621 21.7374 14.6575 21.8554 14.6627C21.9735 14.6679 22.0908 14.6416 22.1953 14.5866L25.9993 12.5866L29.7947 14.5866L29.8613 14.6173C29.9714 14.6606 30.091 14.6739 30.2078 14.6558C30.3247 14.6377 30.4346 14.5888 30.5264 14.5141C30.6181 14.4395 30.6884 14.3418 30.7299 14.231C30.7714 14.1203 30.7827 14.0005 30.7627 13.8839L30.0353 9.64728L33.118 6.64728L33.17 6.59061C33.2443 6.49913 33.293 6.38959 33.3111 6.27315C33.3293 6.15671 33.3163 6.03754 33.2734 5.92776C33.2305 5.818 33.1593 5.72157 33.067 5.64829C32.9747 5.57501 32.8646 5.5275 32.748 5.51061L28.4947 4.89328L26.5933 1.03995C26.5383 0.928307 26.4531 0.83429 26.3475 0.768555C26.2418 0.702812 26.1198 0.667969 25.9953 0.667969C25.8709 0.667969 25.7489 0.702812 25.6432 0.768555C25.5375 0.83429 25.4523 0.928307 25.3973 1.03995L23.4953 4.89328Z" fill="#000000" fill-opacity="1.000000" fill-rule="nonzero"/>
		<path id="Vector" d="M19.242 5.50995L19.1667 5.52528C19.0526 5.55556 18.9487 5.61555 18.8654 5.69915C18.7821 5.78275 18.7225 5.88694 18.6927 6.0011C18.6629 6.11526 18.6639 6.23529 18.6956 6.34893C18.7274 6.46257 18.7887 6.56576 18.8733 6.64795L21.9547 9.64728L21.228 13.8839L21.2193 13.9573C21.2123 14.0752 21.2368 14.1929 21.2903 14.2983C21.3438 14.4037 21.4243 14.4929 21.5236 14.557C21.6228 14.621 21.7374 14.6575 21.8554 14.6627C21.9735 14.6679 22.0908 14.6416 22.1953 14.5866L25.9993 12.5866L29.7947 14.5866L29.8613 14.6173C29.9714 14.6606 30.091 14.6739 30.2078 14.6558C30.3247 14.6377 30.4346 14.5888 30.5264 14.5141C30.6181 14.4395 30.6884 14.3418 30.7299 14.231C30.7714 14.1203 30.7827 14.0005 30.7627 13.8839L30.0353 9.64728L33.118 6.64728L33.17 6.59061C33.2443 6.49913 33.293 6.38959 33.3111 6.27315C33.3293 6.15671 33.3163 6.03754 33.2734 5.92776C33.2305 5.818 33.1593 5.72157 33.067 5.64829C32.9747 5.57501 32.8646 5.5275 32.748 5.51061L28.4947 4.89328L26.5933 1.03995C26.5383 0.928307 26.4531 0.83429 26.3475 0.768555C26.2418 0.702812 26.1198 0.667969 25.9953 0.667969C25.8709 0.667969 25.7489 0.702812 25.6432 0.768555C25.5375 0.83429 25.4523 0.928307 25.3973 1.03995L23.4953 4.89328L19.242 5.50995Z" stroke="#000000" stroke-opacity="1.000000" stroke-width="0.000000" stroke-linejoin="round"/>
	</g>
	<rect id="Frame" width="16.000000" height="16.000000" transform="translate(36.000000 0.000000)" fill="#FFFFFF" fill-opacity="0"/>
	<g clip-path="url(#clip3_20)">
		<path id="Vector" d="M41.4953 4.89328L37.242 5.50995L37.1667 5.52528C37.0526 5.55556 36.9487 5.61555 36.8654 5.69915C36.7821 5.78275 36.7225 5.88694 36.6927 6.0011C36.6629 6.11526 36.6639 6.23529 36.6956 6.34893C36.7274 6.46257 36.7887 6.56576 36.8733 6.64795L39.9547 9.64728L39.228 13.8839L39.2193 13.9573C39.2123 14.0752 39.2368 14.1929 39.2903 14.2983C39.3438 14.4037 39.4243 14.4929 39.5236 14.557C39.6228 14.621 39.7374 14.6575 39.8554 14.6627C39.9735 14.6679 40.0908 14.6416 40.1953 14.5866L43.9993 12.5866L47.7947 14.5866L47.8613 14.6173C47.9714 14.6606 48.091 14.6739 48.2078 14.6558C48.3247 14.6377 48.4346 14.5888 48.5264 14.5141C48.6181 14.4395 48.6884 14.3418 48.7299 14.231C48.7714 14.1203 48.7827 14.0005 48.7627 13.8839L48.0353 9.64728L51.118 6.64728L51.17 6.59061C51.2443 6.49913 51.293 6.38959 51.3111 6.27315C51.3293 6.15671 51.3163 6.03754 51.2734 5.92776C51.2305 5.818 51.1593 5.72157 51.067 5.64829C50.9747 5.57501 50.8646 5.5275 50.748 5.51061L46.4947 4.89328L44.5933 1.03995C44.5383 0.928307 44.4531 0.83429 44.3475 0.768555C44.2418 0.702812 44.1198 0.667969 43.9953 0.667969C43.8709 0.667969 43.7489 0.702812 43.6432 0.768555C43.5375 0.83429 43.4523 0.928307 43.3973 1.03995L41.4953 4.89328Z" fill="#000000" fill-opacity="1.000000" fill-rule="nonzero"/>
		<path id="Vector" d="M37.242 5.50995L37.1667 5.52528C37.0526 5.55556 36.9487 5.61555 36.8654 5.69915C36.7821 5.78275 36.7225 5.88694 36.6927 6.0011C36.6629 6.11526 36.6639 6.23529 36.6956 6.34893C36.7274 6.46257 36.7887 6.56576 36.8733 6.64795L39.9547 9.64728L39.228 13.8839L39.2193 13.9573C39.2123 14.0752 39.2368 14.1929 39.2903 14.2983C39.3438 14.4037 39.4243 14.4929 39.5236 14.557C39.6228 14.621 39.7374 14.6575 39.8554 14.6627C39.9735 14.6679 40.0908 14.6416 40.1953 14.5866L43.9993 12.5866L47.7947 14.5866L47.8613 14.6173C47.9714 14.6606 48.091 14.6739 48.2078 14.6558C48.3247 14.6377 48.4346 14.5888 48.5264 14.5141C48.6181 14.4395 48.6884 14.3418 48.7299 14.231C48.7714 14.1203 48.7827 14.0005 48.7627 13.8839L48.0353 9.64728L51.118 6.64728L51.17 6.59061C51.2443 6.49913 51.293 6.38959 51.3111 6.27315C51.3293 6.15671 51.3163 6.03754 51.2734 5.92776C51.2305 5.818 51.1593 5.72157 51.067 5.64829C50.9747 5.57501 50.8646 5.5275 50.748 5.51061L46.4947 4.89328L44.5933 1.03995C44.5383 0.928307 44.4531 0.83429 44.3475 0.768555C44.2418 0.702812 44.1198 0.667969 43.9953 0.667969C43.8709 0.667969 43.7489 0.702812 43.6432 0.768555C43.5375 0.83429 43.4523 0.928307 43.3973 1.03995L41.4953 4.89328L37.242 5.50995Z" stroke="#000000" stroke-opacity="1.000000" stroke-width="0.000000" stroke-linejoin="round"/>
	</g>
	<rect id="Frame" width="16.000000" height="16.000000" transform="translate(54.000000 0.000000)" fill="#FFFFFF" fill-opacity="0"/>
	<g clip-path="url(#clip3_23)">
		<path id="Vector" d="M59.4953 4.89328L55.242 5.50995L55.1667 5.52528C55.0526 5.55556 54.9487 5.61555 54.8654 5.69915C54.7821 5.78275 54.7225 5.88694 54.6927 6.0011C54.6629 6.11526 54.6639 6.23529 54.6956 6.34893C54.7274 6.46257 54.7887 6.56576 54.8733 6.64795L57.9547 9.64728L57.228 13.8839L57.2193 13.9573C57.2123 14.0752 57.2368 14.1929 57.2903 14.2983C57.3438 14.4037 57.4243 14.4929 57.5236 14.557C57.6228 14.621 57.7374 14.6575 57.8554 14.6627C57.9735 14.6679 58.0908 14.6416 58.1953 14.5866L61.9993 12.5866L65.7947 14.5866L65.8613 14.6173C65.9714 14.6606 66.091 14.6739 66.2078 14.6558C66.3247 14.6377 66.4346 14.5888 66.5264 14.5141C66.6181 14.4395 66.6884 14.3418 66.7299 14.231C66.7714 14.1203 66.7827 14.0005 66.7627 13.8839L66.0353 9.64728L69.118 6.64728L69.17 6.59061C69.2443 6.49913 69.293 6.38959 69.3111 6.27315C69.3293 6.15671 69.3163 6.03754 69.2734 5.92776C69.2305 5.818 69.1593 5.72157 69.067 5.64829C68.9747 5.57501 68.8646 5.5275 68.748 5.51061L64.4947 4.89328L62.5933 1.03995C62.5383 0.928307 62.4531 0.83429 62.3475 0.768555C62.2418 0.702812 62.1198 0.667969 61.9953 0.667969C61.8709 0.667969 61.7489 0.702812 61.6432 0.768555C61.5375 0.83429 61.4523 0.928307 61.3973 1.03995L59.4953 4.89328Z" fill="#000000" fill-opacity="1.000000" fill-rule="nonzero"/>
		<path id="Vector" d="M55.242 5.50995L55.1667 5.52528C55.0526 5.55556 54.9487 5.61555 54.8654 5.69915C54.7821 5.78275 54.7225 5.88694 54.6927 6.0011C54.6629 6.11526 54.6639 6.23529 54.6956 6.34893C54.7274 6.46257 54.7887 6.56576 54.8733 6.64795L57.9547 9.64728L57.228 13.8839L57.2193 13.9573C57.2123 14.0752 57.2368 14.1929 57.2903 14.2983C57.3438 14.4037 57.4243 14.4929 57.5236 14.557C57.6228 14.621 57.7374 14.6575 57.8554 14.6627C57.9735 14.6679 58.0908 14.6416 58.1953 14.5866L61.9993 12.5866L65.7947 14.5866L65.8613 14.6173C65.9714 14.6606 66.091 14.6739 66.2078 14.6558C66.3247 14.6377 66.4346 14.5888 66.5264 14.5141C66.6181 14.4395 66.6884 14.3418 66.7299 14.231C66.7714 14.1203 66.7827 14.0005 66.7627 13.8839L66.0353 9.64728L69.118 6.64728L69.17 6.59061C69.2443 6.49913 69.293 6.38959 69.3111 6.27315C69.3293 6.15671 69.3163 6.03754 69.2734 5.92776C69.2305 5.818 69.1593 5.72157 69.067 5.64829C68.9747 5.57501 68.8646 5.5275 68.748 5.51061L64.4947 4.89328L62.5933 1.03995C62.5383 0.928307 62.4531 0.83429 62.3475 0.768555C62.2418 0.702812 62.1198 0.667969 61.9953 0.667969C61.8709 0.667969 61.7489 0.702812 61.6432 0.768555C61.5375 0.83429 61.4523 0.928307 61.3973 1.03995L59.4953 4.89328L55.242 5.50995Z" stroke="#000000" stroke-opacity="1.000000" stroke-width="0.000000" stroke-linejoin="round"/>
	</g>
	<rect id="Frame" width="16.000000" height="16.000000" transform="translate(72.000000 0.000000)" fill="#FFFFFF" fill-opacity="0"/>
	<g clip-path="url(#clip3_26)">
		<path id="Vector" d="M77.4953 4.89328L73.242 5.50995L73.1667 5.52528C73.0526 5.55556 72.9487 5.61555 72.8654 5.69915C72.7821 5.78275 72.7225 5.88694 72.6927 6.0011C72.6629 6.11526 72.6639 6.23529 72.6956 6.34893C72.7274 6.46257 72.7887 6.56576 72.8733 6.64795L75.9547 9.64728L75.228 13.8839L75.2193 13.9573C75.2123 14.0752 75.2368 14.1929 75.2903 14.2983C75.3438 14.4037 75.4243 14.4929 75.5236 14.557C75.6229 14.621 75.7374 14.6575 75.8554 14.6627C75.9735 14.6679 76.0908 14.6416 76.1953 14.5866L79.9993 12.5866L83.7947 14.5866L83.8613 14.6173C83.9714 14.6606 84.091 14.6739 84.2078 14.6558C84.3247 14.6377 84.4347 14.5888 84.5264 14.5141C84.6181 14.4395 84.6884 14.3418 84.7299 14.231C84.7714 14.1203 84.7827 14.0005 84.7627 13.8839L84.0353 9.64728L87.118 6.64728L87.17 6.59061C87.2443 6.49913 87.293 6.38959 87.3112 6.27315C87.3293 6.15671 87.3163 6.03754 87.2734 5.92776C87.2305 5.818 87.1593 5.72157 87.067 5.64829C86.9747 5.57501 86.8646 5.5275 86.748 5.51061L82.4947 4.89328L80.5933 1.03995C80.5383 0.928307 80.4532 0.83429 80.3474 0.768555C80.2418 0.702812 80.1198 0.667969 79.9953 0.667969C79.8709 0.667969 79.7489 0.702812 79.6432 0.768555C79.5375 0.83429 79.4524 0.928307 79.3973 1.03995L77.4953 4.89328Z" fill="#C5C5C5" fill-opacity="1.000000" fill-rule="nonzero"/>
		<path id="Vector" d="M73.242 5.50995L73.1667 5.52528C73.0526 5.55556 72.9487 5.61555 72.8654 5.69915C72.7821 5.78275 72.7225 5.88694 72.6927 6.0011C72.6629 6.11526 72.6639 6.23529 72.6956 6.34893C72.7274 6.46257 72.7887 6.56576 72.8733 6.64795L75.9547 9.64728L75.228 13.8839L75.2193 13.9573C75.2123 14.0752 75.2368 14.1929 75.2903 14.2983C75.3438 14.4037 75.4243 14.4929 75.5236 14.557C75.6229 14.621 75.7374 14.6575 75.8554 14.6627C75.9735 14.6679 76.0908 14.6416 76.1953 14.5866L79.9993 12.5866L83.7947 14.5866L83.8613 14.6173C83.9714 14.6606 84.091 14.6739 84.2078 14.6558C84.3247 14.6377 84.4347 14.5888 84.5264 14.5141C84.6181 14.4395 84.6884 14.3418 84.7299 14.231C84.7714 14.1203 84.7827 14.0005 84.7627 13.8839L84.0353 9.64728L87.118 6.64728L87.17 6.59061C87.2443 6.49913 87.293 6.38959 87.3112 6.27315C87.3293 6.15671 87.3163 6.03754 87.2734 5.92776C87.2305 5.818 87.1593 5.72157 87.067 5.64829C86.9747 5.57501 86.8646 5.5275 86.748 5.51061L82.4947 4.89328L80.5933 1.03995C80.5383 0.928307 80.4532 0.83429 80.3474 0.768555C80.2418 0.702812 80.1198 0.667969 79.9953 0.667969C79.8709 0.667969 79.7489 0.702812 79.6432 0.768555C79.5375 0.83429 79.4524 0.928307 79.3973 1.03995L77.4953 4.89328L73.242 5.50995Z" stroke="#C5C5C5" stroke-opacity="1.000000" stroke-width="0.000000" stroke-linejoin="round"/>
	</g>
</svg>
