<svg width="40.000000" height="40.000000" viewBox="0 0 40 40" fill="none" xmlns="http://www.w3.org/2000/svg" xmlns:xlink="http://www.w3.org/1999/xlink">
	<desc>
			Created with Pixso.
	</desc>
	<defs/>
	<circle id="Ellipse 12" cx="20.000000" cy="20.000000" r="20.000000" fill="#D9D9D9" fill-opacity="1.000000"/>
	<path id="5" d="M19.7048 19.0078Q22.072 19.0078 23.2009 19.9531Q24.3298 20.8945 24.3298 22.4805Q24.3298 23.5039 23.8142 24.3438Q23.3025 25.1836 22.2556 25.6875Q21.2087 26.1914 19.6736 26.1914Q18.4861 26.1914 17.3416 25.8789Q16.2009 25.5664 15.4002 24.9922L16.4236 23.0078Q17.0642 23.4883 17.8962 23.7539Q18.7283 24.0156 19.6072 24.0156Q20.5837 24.0156 21.1423 23.6328Q21.7048 23.2461 21.7048 22.5586Q21.7048 21.8398 21.1189 21.4727Q20.5369 21.1055 19.0955 21.1055L16.2322 21.1055L16.8064 14.8008L23.6384 14.8008L23.6384 16.8789L18.9666 16.8789L18.7908 19.0078L19.7048 19.0078Z" fill="#000000" fill-opacity="1.000000" fill-rule="evenodd"/>
</svg>
