<svg width="523.000000" height="174.000000" viewBox="0 0 523 174" fill="none" xmlns="http://www.w3.org/2000/svg" xmlns:xlink="http://www.w3.org/1999/xlink">
	<desc>
			Created with Pixso.
	</desc>
	<defs>
		<clipPath id="clip1_426">
			<rect id="Frame" width="14.000000" height="14.000000" transform="translate(33.000000 4.000000)" fill="white" fill-opacity="0"/>
		</clipPath>
		<clipPath id="clip1_429">
			<rect id="Frame" width="14.000000" height="14.000000" transform="translate(49.000000 4.000000)" fill="white" fill-opacity="0"/>
		</clipPath>
		<clipPath id="clip1_432">
			<rect id="Frame" width="14.000000" height="14.000000" transform="translate(65.000000 4.000000)" fill="white" fill-opacity="0"/>
		</clipPath>
		<clipPath id="clip1_435">
			<rect id="Frame" width="14.000000" height="14.000000" transform="translate(81.000000 4.000000)" fill="white" fill-opacity="0"/>
		</clipPath>
		<clipPath id="clip1_438">
			<rect id="Frame" width="14.000000" height="14.000000" transform="translate(97.000000 4.000000)" fill="white" fill-opacity="0"/>
		</clipPath>
		<clipPath id="clip1_447">
			<rect id="Frame" width="14.000000" height="14.000000" transform="translate(26.000000 42.000000)" fill="white" fill-opacity="0"/>
		</clipPath>
		<clipPath id="clip1_450">
			<rect id="Frame" width="14.000000" height="14.000000" transform="translate(42.000000 42.000000)" fill="white" fill-opacity="0"/>
		</clipPath>
		<clipPath id="clip1_453">
			<rect id="Frame" width="14.000000" height="14.000000" transform="translate(58.000000 42.000000)" fill="white" fill-opacity="0"/>
		</clipPath>
		<clipPath id="clip1_456">
			<rect id="Frame" width="14.000000" height="14.000000" transform="translate(74.000000 42.000000)" fill="white" fill-opacity="0"/>
		</clipPath>
		<clipPath id="clip1_459">
			<rect id="Frame" width="14.000000" height="14.000000" transform="translate(90.000000 42.000000)" fill="white" fill-opacity="0"/>
		</clipPath>
		<clipPath id="clip1_468">
			<rect id="Frame" width="14.000000" height="14.000000" transform="translate(22.000000 80.000000)" fill="white" fill-opacity="0"/>
		</clipPath>
		<clipPath id="clip1_471">
			<rect id="Frame" width="14.000000" height="14.000000" transform="translate(38.000000 80.000000)" fill="white" fill-opacity="0"/>
		</clipPath>
		<clipPath id="clip1_474">
			<rect id="Frame" width="14.000000" height="14.000000" transform="translate(54.000000 80.000000)" fill="white" fill-opacity="0"/>
		</clipPath>
		<clipPath id="clip1_477">
			<rect id="Frame" width="14.000000" height="14.000000" transform="translate(70.000000 80.000000)" fill="white" fill-opacity="0"/>
		</clipPath>
		<clipPath id="clip1_480">
			<rect id="Frame" width="14.000000" height="14.000000" transform="translate(86.000000 80.000000)" fill="white" fill-opacity="0"/>
		</clipPath>
		<clipPath id="clip1_489">
			<rect id="Frame" width="14.000000" height="14.000000" transform="translate(22.000000 118.000000)" fill="white" fill-opacity="0"/>
		</clipPath>
		<clipPath id="clip1_492">
			<rect id="Frame" width="14.000000" height="14.000000" transform="translate(38.000000 118.000000)" fill="white" fill-opacity="0"/>
		</clipPath>
		<clipPath id="clip1_495">
			<rect id="Frame" width="14.000000" height="14.000000" transform="translate(54.000000 118.000000)" fill="white" fill-opacity="0"/>
		</clipPath>
		<clipPath id="clip1_498">
			<rect id="Frame" width="14.000000" height="14.000000" transform="translate(70.000000 118.000000)" fill="white" fill-opacity="0"/>
		</clipPath>
		<clipPath id="clip1_501">
			<rect id="Frame" width="14.000000" height="14.000000" transform="translate(86.000000 118.000000)" fill="white" fill-opacity="0"/>
		</clipPath>
		<clipPath id="clip1_510">
			<rect id="Frame" width="14.000000" height="14.000000" transform="translate(17.000000 156.000000)" fill="white" fill-opacity="0"/>
		</clipPath>
		<clipPath id="clip1_513">
			<rect id="Frame" width="14.000000" height="14.000000" transform="translate(33.000000 156.000000)" fill="white" fill-opacity="0"/>
		</clipPath>
		<clipPath id="clip1_516">
			<rect id="Frame" width="14.000000" height="14.000000" transform="translate(49.000000 156.000000)" fill="white" fill-opacity="0"/>
		</clipPath>
		<clipPath id="clip1_519">
			<rect id="Frame" width="14.000000" height="14.000000" transform="translate(65.000000 156.000000)" fill="white" fill-opacity="0"/>
		</clipPath>
		<clipPath id="clip1_522">
			<rect id="Frame" width="14.000000" height="14.000000" transform="translate(81.000000 156.000000)" fill="white" fill-opacity="0"/>
		</clipPath>
	</defs>
	<path id="378" d="M4.43485 10.3159Q5.87723 10.4561 6.6326 11.2046Q7.39139 11.9531 7.39139 13.1152Q7.39139 13.9561 6.97098 14.6362Q6.55057 15.313 5.71659 15.7129Q4.8826 16.1128 3.67948 16.1128Q2.63016 16.1128 1.66288 15.7983Q0.699011 15.4805 0.0803585 14.9233L0.726355 13.8159Q1.2288 14.291 2.01151 14.5781Q2.79764 14.8652 3.67948 14.8652Q4.77323 14.8652 5.38163 14.4038Q5.99003 13.9424 5.99003 13.1289Q5.99003 12.3188 5.38846 11.8711Q4.7869 11.4233 3.56669 11.4233L2.78397 11.4233L2.78397 10.4424L5.24833 7.41748L0.53153 7.41748L0.53153 6.20068L6.99833 6.20068L6.99833 7.15088L4.43485 10.3159ZM15.6655 6.20068L15.6655 7.15088L11.7006 16L10.2172 16L14.0966 7.41748L9.61567 7.41748L9.61567 9.16748L8.27241 9.16748L8.27241 6.20068L15.6655 6.20068ZM22.637 10.8628Q23.4744 11.1841 23.9222 11.7856Q24.3734 12.3872 24.3734 13.228Q24.3734 14.1099 23.8949 14.7627Q23.4198 15.4121 22.5379 15.7642Q21.6561 16.1128 20.4666 16.1128Q19.2908 16.1128 18.4158 15.7642Q17.5408 15.4121 17.0623 14.7627Q16.5872 14.1099 16.5872 13.228Q16.5872 12.3872 17.0282 11.7856Q17.4691 11.1841 18.3099 10.8628Q17.6366 10.5415 17.2879 10.0083Q16.9393 9.4751 16.9393 8.74707Q16.9393 7.93701 17.3802 7.33545Q17.8211 6.73047 18.6175 6.40918Q19.4173 6.08789 20.4666 6.08789Q21.5296 6.08789 22.3328 6.40918Q23.1395 6.73047 23.5804 7.33545Q24.0213 7.93701 24.0213 8.74707Q24.0213 9.46143 23.6624 10.0015Q23.307 10.5415 22.637 10.8628ZM20.4666 7.22266Q19.472 7.22266 18.8978 7.6499Q18.3236 8.07715 18.3236 8.80518Q18.3236 9.5332 18.8909 9.95361Q19.4583 10.3706 20.4666 10.3706Q21.4886 10.3706 22.0697 9.95361Q22.6507 9.5332 22.6507 8.80518Q22.6507 8.07715 22.056 7.6499Q21.4613 7.22266 20.4666 7.22266ZM20.4666 14.978Q21.6287 14.978 22.2987 14.4961Q22.972 14.0107 22.972 13.187Q22.972 12.3735 22.2987 11.9053Q21.6287 11.437 20.4666 11.437Q19.3045 11.437 18.6449 11.9053Q17.9886 12.3735 17.9886 13.187Q17.9886 14.0107 18.6449 14.4961Q19.3045 14.978 20.4666 14.978Z" fill="#000000" fill-opacity="1.000000" fill-rule="evenodd"/>
	<rect id="Frame" width="14.000000" height="14.000000" transform="translate(33.000000 4.000000)" fill="#FFFFFF" fill-opacity="0"/>
	<g clip-path="url(#clip1_426)">
		<path id="Vector" d="M37.8084 8.28162L34.0867 8.8212L34.0208 8.83463C33.921 8.86111 33.8301 8.9136 33.7572 8.98676C33.6844 9.05991 33.6322 9.15106 33.6061 9.25098C33.58 9.35086 33.5809 9.45587 33.6086 9.55533C33.6364 9.65475 33.6901 9.74503 33.7642 9.81696L36.4603 12.4414L35.8245 16.1485L35.8169 16.2126C35.8108 16.3158 35.8322 16.4188 35.879 16.511C35.9258 16.6032 35.9962 16.6813 36.0831 16.7373C36.17 16.7934 36.2702 16.8253 36.3735 16.8299C36.4768 16.8344 36.5794 16.8114 36.6709 16.7633L39.9994 15.0133L43.3203 16.7633L43.3787 16.7901C43.4749 16.828 43.5796 16.8397 43.6819 16.8238C43.7841 16.808 43.8803 16.7652 43.9606 16.6999C44.0409 16.6346 44.1023 16.5491 44.1386 16.4521C44.175 16.3553 44.1849 16.2504 44.1673 16.1485L43.5309 12.4414L46.2282 9.81638L46.2737 9.76678C46.3387 9.68674 46.3813 9.59088 46.3972 9.48901C46.4131 9.38712 46.4017 9.28284 46.3642 9.1868C46.3267 9.09076 46.2643 9.00638 46.1836 8.94226C46.1028 8.87814 46.0065 8.83658 45.9045 8.82178L42.1828 8.28162L40.5192 4.90994C40.471 4.81226 40.3965 4.73001 40.304 4.67249C40.2115 4.61496 40.1048 4.58447 39.9959 4.58447C39.887 4.58447 39.7803 4.61496 39.6878 4.67249C39.5953 4.73001 39.5208 4.81226 39.4727 4.90994L37.8084 8.28162Z" fill="#000000" fill-opacity="1.000000" fill-rule="nonzero"/>
		<path id="Vector" d="M34.0867 8.8212L34.0208 8.83463C33.921 8.86111 33.8301 8.9136 33.7572 8.98676C33.6844 9.05991 33.6322 9.15106 33.6061 9.25098C33.58 9.35086 33.5809 9.45587 33.6086 9.55533C33.6364 9.65475 33.6901 9.74503 33.7642 9.81696L36.4603 12.4414L35.8245 16.1485L35.8169 16.2126C35.8108 16.3158 35.8322 16.4188 35.879 16.511C35.9258 16.6032 35.9962 16.6813 36.0831 16.7373C36.17 16.7934 36.2702 16.8253 36.3735 16.8299C36.4768 16.8344 36.5794 16.8114 36.6709 16.7633L39.9994 15.0133L43.3203 16.7633L43.3787 16.7901C43.4749 16.828 43.5796 16.8397 43.6819 16.8238C43.7841 16.808 43.8803 16.7652 43.9606 16.6999C44.0409 16.6346 44.1023 16.5491 44.1386 16.4521C44.175 16.3553 44.1849 16.2504 44.1673 16.1485L43.5309 12.4414L46.2282 9.81638L46.2737 9.76678C46.3387 9.68674 46.3813 9.59088 46.3972 9.48901C46.4131 9.38712 46.4017 9.28284 46.3642 9.1868C46.3267 9.09076 46.2643 9.00638 46.1836 8.94226C46.1028 8.87814 46.0065 8.83658 45.9045 8.82178L42.1828 8.28162L40.5192 4.90994C40.471 4.81226 40.3965 4.73001 40.304 4.67249C40.2115 4.61496 40.1048 4.58447 39.9959 4.58447C39.887 4.58447 39.7803 4.61496 39.6878 4.67249C39.5953 4.73001 39.5208 4.81226 39.4727 4.90994L37.8084 8.28162L34.0867 8.8212Z" stroke="#000000" stroke-opacity="1.000000" stroke-width="0.000000" stroke-linejoin="round"/>
	</g>
	<rect id="Frame" width="14.000000" height="14.000000" transform="translate(49.000000 4.000000)" fill="#FFFFFF" fill-opacity="0"/>
	<g clip-path="url(#clip1_429)">
		<path id="Vector" d="M53.8084 8.28162L50.0867 8.8212L50.0208 8.83463C49.921 8.86111 49.8301 8.9136 49.7572 8.98676C49.6844 9.05991 49.6322 9.15106 49.6061 9.25098C49.58 9.35086 49.5809 9.45587 49.6086 9.55533C49.6364 9.65475 49.6901 9.74503 49.7642 9.81696L52.4603 12.4414L51.8245 16.1485L51.8169 16.2126C51.8108 16.3158 51.8322 16.4188 51.879 16.511C51.9258 16.6032 51.9962 16.6813 52.0831 16.7373C52.17 16.7934 52.2702 16.8253 52.3735 16.8299C52.4768 16.8344 52.5794 16.8114 52.6709 16.7633L55.9994 15.0133L59.3203 16.7633L59.3787 16.7901C59.4749 16.828 59.5796 16.8397 59.6819 16.8238C59.7841 16.808 59.8803 16.7652 59.9606 16.6999C60.0409 16.6346 60.1023 16.5491 60.1386 16.4521C60.175 16.3553 60.1849 16.2504 60.1673 16.1485L59.5309 12.4414L62.2282 9.81638L62.2737 9.76678C62.3387 9.68674 62.3813 9.59088 62.3972 9.48901C62.4131 9.38712 62.4017 9.28284 62.3642 9.1868C62.3267 9.09076 62.2643 9.00638 62.1836 8.94226C62.1028 8.87814 62.0065 8.83658 61.9045 8.82178L58.1828 8.28162L56.5192 4.90994C56.471 4.81226 56.3965 4.73001 56.304 4.67249C56.2115 4.61496 56.1048 4.58447 55.9959 4.58447C55.887 4.58447 55.7803 4.61496 55.6878 4.67249C55.5953 4.73001 55.5208 4.81226 55.4727 4.90994L53.8084 8.28162Z" fill="#000000" fill-opacity="1.000000" fill-rule="nonzero"/>
		<path id="Vector" d="M50.0867 8.8212L50.0208 8.83463C49.921 8.86111 49.8301 8.9136 49.7572 8.98676C49.6844 9.05991 49.6322 9.15106 49.6061 9.25098C49.58 9.35086 49.5809 9.45587 49.6086 9.55533C49.6364 9.65475 49.6901 9.74503 49.7642 9.81696L52.4603 12.4414L51.8245 16.1485L51.8169 16.2126C51.8108 16.3158 51.8322 16.4188 51.879 16.511C51.9258 16.6032 51.9962 16.6813 52.0831 16.7373C52.17 16.7934 52.2702 16.8253 52.3735 16.8299C52.4768 16.8344 52.5794 16.8114 52.6709 16.7633L55.9994 15.0133L59.3203 16.7633L59.3787 16.7901C59.4749 16.828 59.5796 16.8397 59.6819 16.8238C59.7841 16.808 59.8803 16.7652 59.9606 16.6999C60.0409 16.6346 60.1023 16.5491 60.1386 16.4521C60.175 16.3553 60.1849 16.2504 60.1673 16.1485L59.5309 12.4414L62.2282 9.81638L62.2737 9.76678C62.3387 9.68674 62.3813 9.59088 62.3972 9.48901C62.4131 9.38712 62.4017 9.28284 62.3642 9.1868C62.3267 9.09076 62.2643 9.00638 62.1836 8.94226C62.1028 8.87814 62.0065 8.83658 61.9045 8.82178L58.1828 8.28162L56.5192 4.90994C56.471 4.81226 56.3965 4.73001 56.304 4.67249C56.2115 4.61496 56.1048 4.58447 55.9959 4.58447C55.887 4.58447 55.7803 4.61496 55.6878 4.67249C55.5953 4.73001 55.5208 4.81226 55.4727 4.90994L53.8084 8.28162L50.0867 8.8212Z" stroke="#000000" stroke-opacity="1.000000" stroke-width="0.000000" stroke-linejoin="round"/>
	</g>
	<rect id="Frame" width="14.000000" height="14.000000" transform="translate(65.000000 4.000000)" fill="#FFFFFF" fill-opacity="0"/>
	<g clip-path="url(#clip1_432)">
		<path id="Vector" d="M69.8084 8.28162L66.0867 8.8212L66.0208 8.83463C65.921 8.86111 65.8301 8.9136 65.7572 8.98676C65.6844 9.05991 65.6322 9.15106 65.6061 9.25098C65.58 9.35086 65.5809 9.45587 65.6086 9.55533C65.6364 9.65475 65.6901 9.74503 65.7642 9.81696L68.4603 12.4414L67.8245 16.1485L67.8169 16.2126C67.8108 16.3158 67.8322 16.4188 67.879 16.511C67.9258 16.6032 67.9962 16.6813 68.0831 16.7373C68.17 16.7934 68.2702 16.8253 68.3735 16.8299C68.4768 16.8344 68.5794 16.8114 68.6709 16.7633L71.9994 15.0133L75.3203 16.7633L75.3787 16.7901C75.4749 16.828 75.5796 16.8397 75.6819 16.8238C75.7841 16.808 75.8803 16.7652 75.9606 16.6999C76.0409 16.6346 76.1023 16.5491 76.1386 16.4521C76.175 16.3553 76.1849 16.2504 76.1673 16.1485L75.5309 12.4414L78.2282 9.81638L78.2737 9.76678C78.3387 9.68674 78.3813 9.59088 78.3972 9.48901C78.4131 9.38712 78.4017 9.28284 78.3642 9.1868C78.3267 9.09076 78.2643 9.00638 78.1836 8.94226C78.1028 8.87814 78.0065 8.83658 77.9045 8.82178L74.1828 8.28162L72.5192 4.90994C72.471 4.81226 72.3965 4.73001 72.304 4.67249C72.2115 4.61496 72.1048 4.58447 71.9959 4.58447C71.887 4.58447 71.7803 4.61496 71.6878 4.67249C71.5953 4.73001 71.5208 4.81226 71.4727 4.90994L69.8084 8.28162Z" fill="#000000" fill-opacity="1.000000" fill-rule="nonzero"/>
		<path id="Vector" d="M66.0867 8.8212L66.0208 8.83463C65.921 8.86111 65.8301 8.9136 65.7572 8.98676C65.6844 9.05991 65.6322 9.15106 65.6061 9.25098C65.58 9.35086 65.5809 9.45587 65.6086 9.55533C65.6364 9.65475 65.6901 9.74503 65.7642 9.81696L68.4603 12.4414L67.8245 16.1485L67.8169 16.2126C67.8108 16.3158 67.8322 16.4188 67.879 16.511C67.9258 16.6032 67.9962 16.6813 68.0831 16.7373C68.17 16.7934 68.2702 16.8253 68.3735 16.8299C68.4768 16.8344 68.5794 16.8114 68.6709 16.7633L71.9994 15.0133L75.3203 16.7633L75.3787 16.7901C75.4749 16.828 75.5796 16.8397 75.6819 16.8238C75.7841 16.808 75.8803 16.7652 75.9606 16.6999C76.0409 16.6346 76.1023 16.5491 76.1386 16.4521C76.175 16.3553 76.1849 16.2504 76.1673 16.1485L75.5309 12.4414L78.2282 9.81638L78.2737 9.76678C78.3387 9.68674 78.3813 9.59088 78.3972 9.48901C78.4131 9.38712 78.4017 9.28284 78.3642 9.1868C78.3267 9.09076 78.2643 9.00638 78.1836 8.94226C78.1028 8.87814 78.0065 8.83658 77.9045 8.82178L74.1828 8.28162L72.5192 4.90994C72.471 4.81226 72.3965 4.73001 72.304 4.67249C72.2115 4.61496 72.1048 4.58447 71.9959 4.58447C71.887 4.58447 71.7803 4.61496 71.6878 4.67249C71.5953 4.73001 71.5208 4.81226 71.4727 4.90994L69.8084 8.28162L66.0867 8.8212Z" stroke="#000000" stroke-opacity="1.000000" stroke-width="0.000000" stroke-linejoin="round"/>
	</g>
	<rect id="Frame" width="14.000000" height="14.000000" transform="translate(81.000000 4.000000)" fill="#FFFFFF" fill-opacity="0"/>
	<g clip-path="url(#clip1_435)">
		<path id="Vector" d="M85.8084 8.28162L82.0867 8.8212L82.0208 8.83463C81.921 8.86111 81.8301 8.9136 81.7572 8.98676C81.6844 9.05991 81.6322 9.15106 81.6061 9.25098C81.58 9.35086 81.5809 9.45587 81.6086 9.55533C81.6364 9.65475 81.6901 9.74503 81.7642 9.81696L84.4603 12.4414L83.8245 16.1485L83.8169 16.2126C83.8108 16.3158 83.8322 16.4188 83.879 16.511C83.9258 16.6032 83.9962 16.6813 84.0831 16.7373C84.17 16.7934 84.2702 16.8253 84.3735 16.8299C84.4768 16.8344 84.5794 16.8114 84.6709 16.7633L87.9994 15.0133L91.3203 16.7633L91.3787 16.7901C91.4749 16.828 91.5796 16.8397 91.6818 16.8238C91.7841 16.808 91.8803 16.7652 91.9606 16.6999C92.0408 16.6346 92.1023 16.5491 92.1386 16.4521C92.175 16.3553 92.1849 16.2504 92.1673 16.1485L91.5309 12.4414L94.2282 9.81638L94.2737 9.76678C94.3387 9.68674 94.3813 9.59088 94.3972 9.48901C94.4131 9.38712 94.4017 9.28284 94.3642 9.1868C94.3267 9.09076 94.2643 9.00638 94.1836 8.94226C94.1028 8.87814 94.0065 8.83658 93.9045 8.82178L90.1828 8.28162L88.5192 4.90994C88.471 4.81226 88.3965 4.73001 88.304 4.67249C88.2115 4.61496 88.1048 4.58447 87.9959 4.58447C87.887 4.58447 87.7803 4.61496 87.6878 4.67249C87.5953 4.73001 87.5208 4.81226 87.4727 4.90994L85.8084 8.28162Z" fill="#000000" fill-opacity="1.000000" fill-rule="nonzero"/>
		<path id="Vector" d="M82.0867 8.8212L82.0208 8.83463C81.921 8.86111 81.8301 8.9136 81.7572 8.98676C81.6844 9.05991 81.6322 9.15106 81.6061 9.25098C81.58 9.35086 81.5809 9.45587 81.6086 9.55533C81.6364 9.65475 81.6901 9.74503 81.7642 9.81696L84.4603 12.4414L83.8245 16.1485L83.8169 16.2126C83.8108 16.3158 83.8322 16.4188 83.879 16.511C83.9258 16.6032 83.9962 16.6813 84.0831 16.7373C84.17 16.7934 84.2702 16.8253 84.3735 16.8299C84.4768 16.8344 84.5794 16.8114 84.6709 16.7633L87.9994 15.0133L91.3203 16.7633L91.3787 16.7901C91.4749 16.828 91.5796 16.8397 91.6818 16.8238C91.7841 16.808 91.8803 16.7652 91.9606 16.6999C92.0408 16.6346 92.1023 16.5491 92.1386 16.4521C92.175 16.3553 92.1849 16.2504 92.1673 16.1485L91.5309 12.4414L94.2282 9.81638L94.2737 9.76678C94.3387 9.68674 94.3813 9.59088 94.3972 9.48901C94.4131 9.38712 94.4017 9.28284 94.3642 9.1868C94.3267 9.09076 94.2643 9.00638 94.1836 8.94226C94.1028 8.87814 94.0065 8.83658 93.9045 8.82178L90.1828 8.28162L88.5192 4.90994C88.471 4.81226 88.3965 4.73001 88.304 4.67249C88.2115 4.61496 88.1048 4.58447 87.9959 4.58447C87.887 4.58447 87.7803 4.61496 87.6878 4.67249C87.5953 4.73001 87.5208 4.81226 87.4727 4.90994L85.8084 8.28162L82.0867 8.8212Z" stroke="#000000" stroke-opacity="1.000000" stroke-width="0.000000" stroke-linejoin="round"/>
	</g>
	<rect id="Frame" width="14.000000" height="14.000000" transform="translate(97.000000 4.000000)" fill="#FFFFFF" fill-opacity="0"/>
	<g clip-path="url(#clip1_438)">
		<path id="Vector" d="M101.808 8.28162L98.0867 8.8212L98.0208 8.83463C97.921 8.86111 97.8301 8.9136 97.7572 8.98676C97.6843 9.05991 97.6322 9.15106 97.6061 9.25098C97.58 9.35086 97.5809 9.45587 97.6086 9.55533C97.6364 9.65475 97.6901 9.74503 97.7642 9.81696L100.46 12.4414L99.8245 16.1485L99.8169 16.2126C99.8108 16.3158 99.8322 16.4188 99.879 16.511C99.9258 16.6032 99.9962 16.6813 100.083 16.7373C100.17 16.7934 100.27 16.8253 100.373 16.8299C100.477 16.8344 100.579 16.8114 100.671 16.7633L103.999 15.0133L107.32 16.7633L107.379 16.7901C107.475 16.828 107.58 16.8397 107.682 16.8238C107.784 16.808 107.88 16.7652 107.961 16.6999C108.041 16.6346 108.102 16.5491 108.139 16.4521C108.175 16.3553 108.185 16.2504 108.167 16.1485L107.531 12.4414L110.228 9.81638L110.274 9.76678C110.339 9.68674 110.381 9.59088 110.397 9.48901C110.413 9.38712 110.402 9.28284 110.364 9.1868C110.327 9.09076 110.264 9.00638 110.184 8.94226C110.103 8.87814 110.007 8.83658 109.904 8.82178L106.183 8.28162L104.519 4.90994C104.471 4.81226 104.396 4.73001 104.304 4.67249C104.212 4.61496 104.105 4.58447 103.996 4.58447C103.887 4.58447 103.78 4.61496 103.688 4.67249C103.595 4.73001 103.521 4.81226 103.473 4.90994L101.808 8.28162Z" fill="#000000" fill-opacity="1.000000" fill-rule="nonzero"/>
		<path id="Vector" d="M98.0867 8.8212L98.0208 8.83463C97.921 8.86111 97.8301 8.9136 97.7572 8.98676C97.6843 9.05991 97.6322 9.15106 97.6061 9.25098C97.58 9.35086 97.5809 9.45587 97.6086 9.55533C97.6364 9.65475 97.6901 9.74503 97.7642 9.81696L100.46 12.4414L99.8245 16.1485L99.8169 16.2126C99.8108 16.3158 99.8322 16.4188 99.879 16.511C99.9258 16.6032 99.9962 16.6813 100.083 16.7373C100.17 16.7934 100.27 16.8253 100.373 16.8299C100.477 16.8344 100.579 16.8114 100.671 16.7633L103.999 15.0133L107.32 16.7633L107.379 16.7901C107.475 16.828 107.58 16.8397 107.682 16.8238C107.784 16.808 107.88 16.7652 107.961 16.6999C108.041 16.6346 108.102 16.5491 108.139 16.4521C108.175 16.3553 108.185 16.2504 108.167 16.1485L107.531 12.4414L110.228 9.81638L110.274 9.76678C110.339 9.68674 110.381 9.59088 110.397 9.48901C110.413 9.38712 110.402 9.28284 110.364 9.1868C110.327 9.09076 110.264 9.00638 110.184 8.94226C110.103 8.87814 110.007 8.83658 109.904 8.82178L106.183 8.28162L104.519 4.90994C104.471 4.81226 104.396 4.73001 104.304 4.67249C104.212 4.61496 104.105 4.58447 103.996 4.58447C103.887 4.58447 103.78 4.61496 103.688 4.67249C103.595 4.73001 103.521 4.81226 103.473 4.90994L101.808 8.28162L98.0867 8.8212Z" stroke="#000000" stroke-opacity="1.000000" stroke-width="0.000000" stroke-linejoin="round"/>
	</g>
	<rect id="Rectangle 102" x="123.000000" y="7.000000" rx="4.000000" width="400.000000" height="8.000000" fill="#D9D9D9" fill-opacity="1.000000"/>
	<path id="24" d="M7.99255 52.7832L7.99255 54L0.95153 54L0.95153 53.0464L4.9403 49.1978Q5.66833 48.4971 5.91784 47.9878Q6.17077 47.4751 6.17077 46.959Q6.17077 46.1865 5.63073 45.7627Q5.09411 45.3354 4.08581 45.3354Q2.46227 45.3354 1.58044 46.3984L0.626823 45.5713Q1.20104 44.8706 2.13073 44.481Q3.06384 44.0879 4.21227 44.0879Q5.75036 44.0879 6.65954 44.8228Q7.57214 45.5576 7.57214 46.8188Q7.57214 47.6016 7.23376 48.3022Q6.8988 49.0029 5.96227 49.8984L2.96471 52.7832L7.99255 52.7832ZM17.3998 51.5903L15.537 51.5903L15.537 54L14.18 54L14.18 51.5903L8.7352 51.5903L8.7352 50.6128L13.7459 44.2007L15.2567 44.2007L10.4544 50.3872L14.221 50.3872L14.221 48.2612L15.537 48.2612L15.537 50.3872L17.3998 50.3872L17.3998 51.5903Z" fill="#000000" fill-opacity="1.000000" fill-rule="evenodd"/>
	<rect id="Frame" width="14.000000" height="14.000000" transform="translate(26.000000 42.000000)" fill="#FFFFFF" fill-opacity="0"/>
	<g clip-path="url(#clip1_447)">
		<path id="Vector" d="M30.8084 46.2816L27.0867 46.8212L27.0208 46.8346C26.921 46.8611 26.8301 46.9136 26.7572 46.9868C26.6844 47.0599 26.6322 47.1511 26.6061 47.251C26.58 47.3509 26.5809 47.4559 26.6086 47.5553C26.6364 47.6548 26.6901 47.745 26.7642 47.817L29.4603 50.4414L28.8245 54.1485L28.8169 54.2126C28.8108 54.3158 28.8322 54.4188 28.879 54.511C28.9258 54.6032 28.9962 54.6813 29.0831 54.7373C29.17 54.7934 29.2702 54.8253 29.3735 54.8299C29.4768 54.8344 29.5794 54.8114 29.6709 54.7633L32.9994 53.0133L36.3203 54.7633L36.3787 54.7901C36.4749 54.828 36.5796 54.8397 36.6819 54.8238C36.7841 54.808 36.8803 54.7652 36.9606 54.6999C37.0409 54.6346 37.1023 54.5491 37.1386 54.4521C37.175 54.3553 37.1849 54.2504 37.1673 54.1485L36.5309 50.4414L39.2282 47.8164L39.2737 47.7668C39.3387 47.6867 39.3813 47.5909 39.3972 47.489C39.4131 47.3871 39.4017 47.2828 39.3642 47.1868C39.3267 47.0908 39.2643 47.0064 39.1836 46.9423C39.1028 46.8781 39.0065 46.8366 38.9045 46.8218L35.1828 46.2816L33.5192 42.9099C33.471 42.8123 33.3965 42.73 33.304 42.6725C33.2115 42.615 33.1048 42.5845 32.9959 42.5845C32.887 42.5845 32.7803 42.615 32.6878 42.6725C32.5953 42.73 32.5208 42.8123 32.4727 42.9099L30.8084 46.2816Z" fill="#000000" fill-opacity="1.000000" fill-rule="nonzero"/>
		<path id="Vector" d="M27.0867 46.8212L27.0208 46.8346C26.921 46.8611 26.8301 46.9136 26.7572 46.9868C26.6844 47.0599 26.6322 47.1511 26.6061 47.251C26.58 47.3509 26.5809 47.4559 26.6086 47.5553C26.6364 47.6548 26.6901 47.745 26.7642 47.817L29.4603 50.4414L28.8245 54.1485L28.8169 54.2126C28.8108 54.3158 28.8322 54.4188 28.879 54.511C28.9258 54.6032 28.9962 54.6813 29.0831 54.7373C29.17 54.7934 29.2702 54.8253 29.3735 54.8299C29.4768 54.8344 29.5794 54.8114 29.6709 54.7633L32.9994 53.0133L36.3203 54.7633L36.3787 54.7901C36.4749 54.828 36.5796 54.8397 36.6819 54.8238C36.7841 54.808 36.8803 54.7652 36.9606 54.6999C37.0409 54.6346 37.1023 54.5491 37.1386 54.4521C37.175 54.3553 37.1849 54.2504 37.1673 54.1485L36.5309 50.4414L39.2282 47.8164L39.2737 47.7668C39.3387 47.6867 39.3813 47.5909 39.3972 47.489C39.4131 47.3871 39.4017 47.2828 39.3642 47.1868C39.3267 47.0908 39.2643 47.0064 39.1836 46.9423C39.1028 46.8781 39.0065 46.8366 38.9045 46.8218L35.1828 46.2816L33.5192 42.9099C33.471 42.8123 33.3965 42.73 33.304 42.6725C33.2115 42.615 33.1048 42.5845 32.9959 42.5845C32.887 42.5845 32.7803 42.615 32.6878 42.6725C32.5953 42.73 32.5208 42.8123 32.4727 42.9099L30.8084 46.2816L27.0867 46.8212Z" stroke="#000000" stroke-opacity="1.000000" stroke-width="0.000000" stroke-linejoin="round"/>
	</g>
	<rect id="Frame" width="14.000000" height="14.000000" transform="translate(42.000000 42.000000)" fill="#FFFFFF" fill-opacity="0"/>
	<g clip-path="url(#clip1_450)">
		<path id="Vector" d="M46.8084 46.2816L43.0867 46.8212L43.0208 46.8346C42.921 46.8611 42.8301 46.9136 42.7572 46.9868C42.6844 47.0599 42.6322 47.1511 42.6061 47.251C42.58 47.3509 42.5809 47.4559 42.6086 47.5553C42.6364 47.6548 42.6901 47.745 42.7642 47.817L45.4603 50.4414L44.8245 54.1485L44.8169 54.2126C44.8108 54.3158 44.8322 54.4188 44.879 54.511C44.9258 54.6032 44.9962 54.6813 45.0831 54.7373C45.17 54.7934 45.2702 54.8253 45.3735 54.8299C45.4768 54.8344 45.5794 54.8114 45.6709 54.7633L48.9994 53.0133L52.3203 54.7633L52.3787 54.7901C52.4749 54.828 52.5796 54.8397 52.6819 54.8238C52.7841 54.808 52.8803 54.7652 52.9606 54.6999C53.0409 54.6346 53.1023 54.5491 53.1386 54.4521C53.175 54.3553 53.1849 54.2504 53.1673 54.1485L52.5309 50.4414L55.2282 47.8164L55.2737 47.7668C55.3387 47.6867 55.3813 47.5909 55.3972 47.489C55.4131 47.3871 55.4017 47.2828 55.3642 47.1868C55.3267 47.0908 55.2643 47.0064 55.1836 46.9423C55.1028 46.8781 55.0065 46.8366 54.9045 46.8218L51.1828 46.2816L49.5192 42.9099C49.471 42.8123 49.3965 42.73 49.304 42.6725C49.2115 42.615 49.1048 42.5845 48.9959 42.5845C48.887 42.5845 48.7803 42.615 48.6878 42.6725C48.5953 42.73 48.5208 42.8123 48.4727 42.9099L46.8084 46.2816Z" fill="#000000" fill-opacity="1.000000" fill-rule="nonzero"/>
		<path id="Vector" d="M43.0867 46.8212L43.0208 46.8346C42.921 46.8611 42.8301 46.9136 42.7572 46.9868C42.6844 47.0599 42.6322 47.1511 42.6061 47.251C42.58 47.3509 42.5809 47.4559 42.6086 47.5553C42.6364 47.6548 42.6901 47.745 42.7642 47.817L45.4603 50.4414L44.8245 54.1485L44.8169 54.2126C44.8108 54.3158 44.8322 54.4188 44.879 54.511C44.9258 54.6032 44.9962 54.6813 45.0831 54.7373C45.17 54.7934 45.2702 54.8253 45.3735 54.8299C45.4768 54.8344 45.5794 54.8114 45.6709 54.7633L48.9994 53.0133L52.3203 54.7633L52.3787 54.7901C52.4749 54.828 52.5796 54.8397 52.6819 54.8238C52.7841 54.808 52.8803 54.7652 52.9606 54.6999C53.0409 54.6346 53.1023 54.5491 53.1386 54.4521C53.175 54.3553 53.1849 54.2504 53.1673 54.1485L52.5309 50.4414L55.2282 47.8164L55.2737 47.7668C55.3387 47.6867 55.3813 47.5909 55.3972 47.489C55.4131 47.3871 55.4017 47.2828 55.3642 47.1868C55.3267 47.0908 55.2643 47.0064 55.1836 46.9423C55.1028 46.8781 55.0065 46.8366 54.9045 46.8218L51.1828 46.2816L49.5192 42.9099C49.471 42.8123 49.3965 42.73 49.304 42.6725C49.2115 42.615 49.1048 42.5845 48.9959 42.5845C48.887 42.5845 48.7803 42.615 48.6878 42.6725C48.5953 42.73 48.5208 42.8123 48.4727 42.9099L46.8084 46.2816L43.0867 46.8212Z" stroke="#000000" stroke-opacity="1.000000" stroke-width="0.000000" stroke-linejoin="round"/>
	</g>
	<rect id="Frame" width="14.000000" height="14.000000" transform="translate(58.000000 42.000000)" fill="#FFFFFF" fill-opacity="0"/>
	<g clip-path="url(#clip1_453)">
		<path id="Vector" d="M62.8084 46.2816L59.0867 46.8212L59.0208 46.8346C58.921 46.8611 58.8301 46.9136 58.7572 46.9868C58.6844 47.0599 58.6322 47.1511 58.6061 47.251C58.58 47.3509 58.5809 47.4559 58.6086 47.5553C58.6364 47.6548 58.6901 47.745 58.7642 47.817L61.4603 50.4414L60.8245 54.1485L60.8169 54.2126C60.8108 54.3158 60.8322 54.4188 60.879 54.511C60.9258 54.6032 60.9962 54.6813 61.0831 54.7373C61.17 54.7934 61.2702 54.8253 61.3735 54.8299C61.4768 54.8344 61.5794 54.8114 61.6709 54.7633L64.9994 53.0133L68.3203 54.7633L68.3787 54.7901C68.4749 54.828 68.5796 54.8397 68.6819 54.8238C68.7841 54.808 68.8803 54.7652 68.9606 54.6999C69.0409 54.6346 69.1023 54.5491 69.1386 54.4521C69.175 54.3553 69.1849 54.2504 69.1673 54.1485L68.5309 50.4414L71.2282 47.8164L71.2737 47.7668C71.3387 47.6867 71.3813 47.5909 71.3972 47.489C71.4131 47.3871 71.4017 47.2828 71.3642 47.1868C71.3267 47.0908 71.2643 47.0064 71.1836 46.9423C71.1028 46.8781 71.0065 46.8366 70.9045 46.8218L67.1828 46.2816L65.5192 42.9099C65.471 42.8123 65.3965 42.73 65.304 42.6725C65.2115 42.615 65.1048 42.5845 64.9959 42.5845C64.887 42.5845 64.7803 42.615 64.6878 42.6725C64.5953 42.73 64.5208 42.8123 64.4727 42.9099L62.8084 46.2816Z" fill="#000000" fill-opacity="1.000000" fill-rule="nonzero"/>
		<path id="Vector" d="M59.0867 46.8212L59.0208 46.8346C58.921 46.8611 58.8301 46.9136 58.7572 46.9868C58.6844 47.0599 58.6322 47.1511 58.6061 47.251C58.58 47.3509 58.5809 47.4559 58.6086 47.5553C58.6364 47.6548 58.6901 47.745 58.7642 47.817L61.4603 50.4414L60.8245 54.1485L60.8169 54.2126C60.8108 54.3158 60.8322 54.4188 60.879 54.511C60.9258 54.6032 60.9962 54.6813 61.0831 54.7373C61.17 54.7934 61.2702 54.8253 61.3735 54.8299C61.4768 54.8344 61.5794 54.8114 61.6709 54.7633L64.9994 53.0133L68.3203 54.7633L68.3787 54.7901C68.4749 54.828 68.5796 54.8397 68.6819 54.8238C68.7841 54.808 68.8803 54.7652 68.9606 54.6999C69.0409 54.6346 69.1023 54.5491 69.1386 54.4521C69.175 54.3553 69.1849 54.2504 69.1673 54.1485L68.5309 50.4414L71.2282 47.8164L71.2737 47.7668C71.3387 47.6867 71.3813 47.5909 71.3972 47.489C71.4131 47.3871 71.4017 47.2828 71.3642 47.1868C71.3267 47.0908 71.2643 47.0064 71.1836 46.9423C71.1028 46.8781 71.0065 46.8366 70.9045 46.8218L67.1828 46.2816L65.5192 42.9099C65.471 42.8123 65.3965 42.73 65.304 42.6725C65.2115 42.615 65.1048 42.5845 64.9959 42.5845C64.887 42.5845 64.7803 42.615 64.6878 42.6725C64.5953 42.73 64.5208 42.8123 64.4727 42.9099L62.8084 46.2816L59.0867 46.8212Z" stroke="#000000" stroke-opacity="1.000000" stroke-width="0.000000" stroke-linejoin="round"/>
	</g>
	<rect id="Frame" width="14.000000" height="14.000000" transform="translate(74.000000 42.000000)" fill="#FFFFFF" fill-opacity="0"/>
	<g clip-path="url(#clip1_456)">
		<path id="Vector" d="M78.8084 46.2816L75.0867 46.8212L75.0208 46.8346C74.921 46.8611 74.8301 46.9136 74.7572 46.9868C74.6844 47.0599 74.6322 47.1511 74.6061 47.251C74.58 47.3509 74.5809 47.4559 74.6086 47.5553C74.6364 47.6548 74.6901 47.745 74.7642 47.817L77.4603 50.4414L76.8245 54.1485L76.8169 54.2126C76.8108 54.3158 76.8322 54.4188 76.879 54.511C76.9258 54.6032 76.9962 54.6813 77.0831 54.7373C77.17 54.7934 77.2702 54.8253 77.3735 54.8299C77.4768 54.8344 77.5794 54.8114 77.6709 54.7633L80.9994 53.0133L84.3203 54.7633L84.3787 54.7901C84.4749 54.828 84.5796 54.8397 84.6819 54.8238C84.7841 54.808 84.8803 54.7652 84.9606 54.6999C85.0409 54.6346 85.1023 54.5491 85.1386 54.4521C85.175 54.3553 85.1849 54.2504 85.1673 54.1485L84.5309 50.4414L87.2282 47.8164L87.2737 47.7668C87.3387 47.6867 87.3813 47.5909 87.3972 47.489C87.4131 47.3871 87.4017 47.2828 87.3642 47.1868C87.3267 47.0908 87.2643 47.0064 87.1836 46.9423C87.1028 46.8781 87.0065 46.8366 86.9045 46.8218L83.1828 46.2816L81.5192 42.9099C81.471 42.8123 81.3965 42.73 81.304 42.6725C81.2115 42.615 81.1048 42.5845 80.9959 42.5845C80.887 42.5845 80.7803 42.615 80.6878 42.6725C80.5953 42.73 80.5208 42.8123 80.4727 42.9099L78.8084 46.2816Z" fill="#000000" fill-opacity="1.000000" fill-rule="nonzero"/>
		<path id="Vector" d="M75.0867 46.8212L75.0208 46.8346C74.921 46.8611 74.8301 46.9136 74.7572 46.9868C74.6844 47.0599 74.6322 47.1511 74.6061 47.251C74.58 47.3509 74.5809 47.4559 74.6086 47.5553C74.6364 47.6548 74.6901 47.745 74.7642 47.817L77.4603 50.4414L76.8245 54.1485L76.8169 54.2126C76.8108 54.3158 76.8322 54.4188 76.879 54.511C76.9258 54.6032 76.9962 54.6813 77.0831 54.7373C77.17 54.7934 77.2702 54.8253 77.3735 54.8299C77.4768 54.8344 77.5794 54.8114 77.6709 54.7633L80.9994 53.0133L84.3203 54.7633L84.3787 54.7901C84.4749 54.828 84.5796 54.8397 84.6819 54.8238C84.7841 54.808 84.8803 54.7652 84.9606 54.6999C85.0409 54.6346 85.1023 54.5491 85.1386 54.4521C85.175 54.3553 85.1849 54.2504 85.1673 54.1485L84.5309 50.4414L87.2282 47.8164L87.2737 47.7668C87.3387 47.6867 87.3813 47.5909 87.3972 47.489C87.4131 47.3871 87.4017 47.2828 87.3642 47.1868C87.3267 47.0908 87.2643 47.0064 87.1836 46.9423C87.1028 46.8781 87.0065 46.8366 86.9045 46.8218L83.1828 46.2816L81.5192 42.9099C81.471 42.8123 81.3965 42.73 81.304 42.6725C81.2115 42.615 81.1048 42.5845 80.9959 42.5845C80.887 42.5845 80.7803 42.615 80.6878 42.6725C80.5953 42.73 80.5208 42.8123 80.4727 42.9099L78.8084 46.2816L75.0867 46.8212Z" stroke="#000000" stroke-opacity="1.000000" stroke-width="0.000000" stroke-linejoin="round"/>
	</g>
	<rect id="Frame" width="14.000000" height="14.000000" transform="translate(90.000000 42.000000)" fill="#FFFFFF" fill-opacity="0"/>
	<g clip-path="url(#clip1_459)">
		<path id="Vector" d="M94.8084 46.2816L91.0867 46.8212L91.0208 46.8346C90.921 46.8611 90.8301 46.9136 90.7572 46.9868C90.6843 47.0599 90.6322 47.1511 90.6061 47.251C90.58 47.3509 90.5809 47.4559 90.6086 47.5553C90.6364 47.6548 90.6901 47.745 90.7642 47.817L93.4603 50.4414L92.8245 54.1485L92.8169 54.2126C92.8108 54.3158 92.8322 54.4188 92.879 54.511C92.9258 54.6032 92.9962 54.6813 93.0831 54.7373C93.17 54.7934 93.2702 54.8253 93.3735 54.8299C93.4767 54.8344 93.5794 54.8114 93.6709 54.7633L96.9994 53.0133L100.32 54.7633L100.379 54.7901C100.475 54.828 100.58 54.8397 100.682 54.8238C100.784 54.808 100.88 54.7652 100.961 54.6999C101.041 54.6346 101.102 54.5491 101.139 54.4521C101.175 54.3553 101.185 54.2504 101.167 54.1485L100.531 50.4414L103.228 47.8164L103.274 47.7668C103.339 47.6867 103.381 47.5909 103.397 47.489C103.413 47.3871 103.402 47.2828 103.364 47.1868C103.327 47.0908 103.264 47.0064 103.184 46.9423C103.103 46.8781 103.007 46.8366 102.904 46.8218L99.1828 46.2816L97.5192 42.9099C97.471 42.8123 97.3965 42.73 97.304 42.6725C97.2115 42.615 97.1048 42.5845 96.9959 42.5845C96.887 42.5845 96.7803 42.615 96.6878 42.6725C96.5953 42.73 96.5208 42.8123 96.4727 42.9099L94.8084 46.2816Z" fill="#C5C5C5" fill-opacity="1.000000" fill-rule="nonzero"/>
		<path id="Vector" d="M91.0867 46.8212L91.0208 46.8346C90.921 46.8611 90.8301 46.9136 90.7572 46.9868C90.6843 47.0599 90.6322 47.1511 90.6061 47.251C90.58 47.3509 90.5809 47.4559 90.6086 47.5553C90.6364 47.6548 90.6901 47.745 90.7642 47.817L93.4603 50.4414L92.8245 54.1485L92.8169 54.2126C92.8108 54.3158 92.8322 54.4188 92.879 54.511C92.9258 54.6032 92.9962 54.6813 93.0831 54.7373C93.17 54.7934 93.2702 54.8253 93.3735 54.8299C93.4767 54.8344 93.5794 54.8114 93.6709 54.7633L96.9994 53.0133L100.32 54.7633L100.379 54.7901C100.475 54.828 100.58 54.8397 100.682 54.8238C100.784 54.808 100.88 54.7652 100.961 54.6999C101.041 54.6346 101.102 54.5491 101.139 54.4521C101.175 54.3553 101.185 54.2504 101.167 54.1485L100.531 50.4414L103.228 47.8164L103.274 47.7668C103.339 47.6867 103.381 47.5909 103.397 47.489C103.413 47.3871 103.402 47.2828 103.364 47.1868C103.327 47.0908 103.264 47.0064 103.184 46.9423C103.103 46.8781 103.007 46.8366 102.904 46.8218L99.1828 46.2816L97.5192 42.9099C97.471 42.8123 97.3965 42.73 97.304 42.6725C97.2115 42.615 97.1048 42.5845 96.9959 42.5845C96.887 42.5845 96.7803 42.615 96.6878 42.6725C96.5953 42.73 96.5208 42.8123 96.4727 42.9099L94.8084 46.2816L91.0867 46.8212Z" stroke="#C5C5C5" stroke-opacity="1.000000" stroke-width="0.000000" stroke-linejoin="round"/>
	</g>
	<rect id="Rectangle 102" x="116.000000" y="45.000000" rx="4.000000" width="98.000000" height="8.000000" fill="#D9D9D9" fill-opacity="1.000000"/>
	<path id="21" d="M7.95255 90.7832L7.95255 92L0.911531 92L0.911531 91.0464L4.9003 87.1978Q5.62833 86.4971 5.87784 85.9878Q6.13077 85.4751 6.13077 84.959Q6.13077 84.1865 5.59073 83.7627Q5.05411 83.3354 4.04581 83.3354Q2.42227 83.3354 1.54044 84.3984L0.586824 83.5713Q1.16104 82.8706 2.09073 82.481Q3.02384 82.0879 4.17227 82.0879Q5.71036 82.0879 6.61954 82.8228Q7.53214 83.5576 7.53214 84.8188Q7.53214 85.6016 7.19376 86.3022Q6.8588 87.0029 5.92227 87.8984L2.92471 90.7832L7.95255 90.7832ZM12.1365 82.2007L12.1365 92L10.7522 92L10.7522 83.4175L8.54079 83.4175L8.54079 82.2007L12.1365 82.2007Z" fill="#000000" fill-opacity="1.000000" fill-rule="evenodd"/>
	<rect id="Frame" width="14.000000" height="14.000000" transform="translate(22.000000 80.000000)" fill="#FFFFFF" fill-opacity="0"/>
	<g clip-path="url(#clip1_468)">
		<path id="Vector" d="M26.8084 84.2816L23.0867 84.8212L23.0208 84.8346C22.921 84.8611 22.8301 84.9136 22.7572 84.9868C22.6844 85.0599 22.6322 85.1511 22.6061 85.251C22.58 85.3509 22.5809 85.4559 22.6086 85.5553C22.6364 85.6548 22.6901 85.745 22.7642 85.817L25.4603 88.4414L24.8245 92.1485L24.8169 92.2126C24.8108 92.3158 24.8322 92.4188 24.879 92.511C24.9258 92.6032 24.9962 92.6813 25.0831 92.7373C25.17 92.7934 25.2702 92.8253 25.3735 92.8299C25.4768 92.8344 25.5794 92.8114 25.6709 92.7633L28.9994 91.0133L32.3203 92.7633L32.3787 92.7901C32.4749 92.828 32.5796 92.8397 32.6819 92.8238C32.7841 92.808 32.8803 92.7652 32.9606 92.6999C33.0409 92.6346 33.1023 92.5491 33.1386 92.4521C33.175 92.3553 33.1849 92.2504 33.1673 92.1485L32.5309 88.4414L35.2282 85.8164L35.2737 85.7668C35.3387 85.6867 35.3813 85.5909 35.3972 85.489C35.4131 85.3871 35.4017 85.2828 35.3642 85.1868C35.3267 85.0908 35.2643 85.0064 35.1836 84.9423C35.1028 84.8781 35.0065 84.8366 34.9045 84.8218L31.1828 84.2816L29.5192 80.9099C29.471 80.8123 29.3965 80.73 29.304 80.6725C29.2115 80.615 29.1048 80.5845 28.9959 80.5845C28.887 80.5845 28.7803 80.615 28.6878 80.6725C28.5953 80.73 28.5208 80.8123 28.4727 80.9099L26.8084 84.2816Z" fill="#000000" fill-opacity="1.000000" fill-rule="nonzero"/>
		<path id="Vector" d="M23.0867 84.8212L23.0208 84.8346C22.921 84.8611 22.8301 84.9136 22.7572 84.9868C22.6844 85.0599 22.6322 85.1511 22.6061 85.251C22.58 85.3509 22.5809 85.4559 22.6086 85.5553C22.6364 85.6548 22.6901 85.745 22.7642 85.817L25.4603 88.4414L24.8245 92.1485L24.8169 92.2126C24.8108 92.3158 24.8322 92.4188 24.879 92.511C24.9258 92.6032 24.9962 92.6813 25.0831 92.7373C25.17 92.7934 25.2702 92.8253 25.3735 92.8299C25.4768 92.8344 25.5794 92.8114 25.6709 92.7633L28.9994 91.0133L32.3203 92.7633L32.3787 92.7901C32.4749 92.828 32.5796 92.8397 32.6819 92.8238C32.7841 92.808 32.8803 92.7652 32.9606 92.6999C33.0409 92.6346 33.1023 92.5491 33.1386 92.4521C33.175 92.3553 33.1849 92.2504 33.1673 92.1485L32.5309 88.4414L35.2282 85.8164L35.2737 85.7668C35.3387 85.6867 35.3813 85.5909 35.3972 85.489C35.4131 85.3871 35.4017 85.2828 35.3642 85.1868C35.3267 85.0908 35.2643 85.0064 35.1836 84.9423C35.1028 84.8781 35.0065 84.8366 34.9045 84.8218L31.1828 84.2816L29.5192 80.9099C29.471 80.8123 29.3965 80.73 29.304 80.6725C29.2115 80.615 29.1048 80.5845 28.9959 80.5845C28.887 80.5845 28.7803 80.615 28.6878 80.6725C28.5953 80.73 28.5208 80.8123 28.4727 80.9099L26.8084 84.2816L23.0867 84.8212Z" stroke="#000000" stroke-opacity="1.000000" stroke-width="0.000000" stroke-linejoin="round"/>
	</g>
	<rect id="Frame" width="14.000000" height="14.000000" transform="translate(38.000000 80.000000)" fill="#FFFFFF" fill-opacity="0"/>
	<g clip-path="url(#clip1_471)">
		<path id="Vector" d="M42.8084 84.2816L39.0867 84.8212L39.0208 84.8346C38.921 84.8611 38.8301 84.9136 38.7572 84.9868C38.6844 85.0599 38.6322 85.1511 38.6061 85.251C38.58 85.3509 38.5809 85.4559 38.6086 85.5553C38.6364 85.6548 38.6901 85.745 38.7642 85.817L41.4603 88.4414L40.8245 92.1485L40.8169 92.2126C40.8108 92.3158 40.8322 92.4188 40.879 92.511C40.9258 92.6032 40.9962 92.6813 41.0831 92.7373C41.17 92.7934 41.2702 92.8253 41.3735 92.8299C41.4768 92.8344 41.5794 92.8114 41.6709 92.7633L44.9994 91.0133L48.3203 92.7633L48.3787 92.7901C48.4749 92.828 48.5796 92.8397 48.6819 92.8238C48.7841 92.808 48.8803 92.7652 48.9606 92.6999C49.0409 92.6346 49.1023 92.5491 49.1386 92.4521C49.175 92.3553 49.1849 92.2504 49.1673 92.1485L48.5309 88.4414L51.2282 85.8164L51.2737 85.7668C51.3387 85.6867 51.3813 85.5909 51.3972 85.489C51.4131 85.3871 51.4017 85.2828 51.3642 85.1868C51.3267 85.0908 51.2643 85.0064 51.1836 84.9423C51.1028 84.8781 51.0065 84.8366 50.9045 84.8218L47.1828 84.2816L45.5192 80.9099C45.471 80.8123 45.3965 80.73 45.304 80.6725C45.2115 80.615 45.1048 80.5845 44.9959 80.5845C44.887 80.5845 44.7803 80.615 44.6878 80.6725C44.5953 80.73 44.5208 80.8123 44.4727 80.9099L42.8084 84.2816Z" fill="#000000" fill-opacity="1.000000" fill-rule="nonzero"/>
		<path id="Vector" d="M39.0867 84.8212L39.0208 84.8346C38.921 84.8611 38.8301 84.9136 38.7572 84.9868C38.6844 85.0599 38.6322 85.1511 38.6061 85.251C38.58 85.3509 38.5809 85.4559 38.6086 85.5553C38.6364 85.6548 38.6901 85.745 38.7642 85.817L41.4603 88.4414L40.8245 92.1485L40.8169 92.2126C40.8108 92.3158 40.8322 92.4188 40.879 92.511C40.9258 92.6032 40.9962 92.6813 41.0831 92.7373C41.17 92.7934 41.2702 92.8253 41.3735 92.8299C41.4768 92.8344 41.5794 92.8114 41.6709 92.7633L44.9994 91.0133L48.3203 92.7633L48.3787 92.7901C48.4749 92.828 48.5796 92.8397 48.6819 92.8238C48.7841 92.808 48.8803 92.7652 48.9606 92.6999C49.0409 92.6346 49.1023 92.5491 49.1386 92.4521C49.175 92.3553 49.1849 92.2504 49.1673 92.1485L48.5309 88.4414L51.2282 85.8164L51.2737 85.7668C51.3387 85.6867 51.3813 85.5909 51.3972 85.489C51.4131 85.3871 51.4017 85.2828 51.3642 85.1868C51.3267 85.0908 51.2643 85.0064 51.1836 84.9423C51.1028 84.8781 51.0065 84.8366 50.9045 84.8218L47.1828 84.2816L45.5192 80.9099C45.471 80.8123 45.3965 80.73 45.304 80.6725C45.2115 80.615 45.1048 80.5845 44.9959 80.5845C44.887 80.5845 44.7803 80.615 44.6878 80.6725C44.5953 80.73 44.5208 80.8123 44.4727 80.9099L42.8084 84.2816L39.0867 84.8212Z" stroke="#000000" stroke-opacity="1.000000" stroke-width="0.000000" stroke-linejoin="round"/>
	</g>
	<rect id="Frame" width="14.000000" height="14.000000" transform="translate(54.000000 80.000000)" fill="#FFFFFF" fill-opacity="0"/>
	<g clip-path="url(#clip1_474)">
		<path id="Vector" d="M58.8084 84.2816L55.0867 84.8212L55.0208 84.8346C54.921 84.8611 54.8301 84.9136 54.7572 84.9868C54.6844 85.0599 54.6322 85.1511 54.6061 85.251C54.58 85.3509 54.5809 85.4559 54.6086 85.5553C54.6364 85.6548 54.6901 85.745 54.7642 85.817L57.4603 88.4414L56.8245 92.1485L56.8169 92.2126C56.8108 92.3158 56.8322 92.4188 56.879 92.511C56.9258 92.6032 56.9962 92.6813 57.0831 92.7373C57.17 92.7934 57.2702 92.8253 57.3735 92.8299C57.4768 92.8344 57.5794 92.8114 57.6709 92.7633L60.9994 91.0133L64.3203 92.7633L64.3787 92.7901C64.4749 92.828 64.5796 92.8397 64.6819 92.8238C64.7841 92.808 64.8803 92.7652 64.9606 92.6999C65.0409 92.6346 65.1023 92.5491 65.1386 92.4521C65.175 92.3553 65.1849 92.2504 65.1673 92.1485L64.5309 88.4414L67.2282 85.8164L67.2737 85.7668C67.3387 85.6867 67.3813 85.5909 67.3972 85.489C67.4131 85.3871 67.4017 85.2828 67.3642 85.1868C67.3267 85.0908 67.2643 85.0064 67.1836 84.9423C67.1028 84.8781 67.0065 84.8366 66.9045 84.8218L63.1828 84.2816L61.5192 80.9099C61.471 80.8123 61.3965 80.73 61.304 80.6725C61.2115 80.615 61.1048 80.5845 60.9959 80.5845C60.887 80.5845 60.7803 80.615 60.6878 80.6725C60.5953 80.73 60.5208 80.8123 60.4727 80.9099L58.8084 84.2816Z" fill="#000000" fill-opacity="1.000000" fill-rule="nonzero"/>
		<path id="Vector" d="M55.0867 84.8212L55.0208 84.8346C54.921 84.8611 54.8301 84.9136 54.7572 84.9868C54.6844 85.0599 54.6322 85.1511 54.6061 85.251C54.58 85.3509 54.5809 85.4559 54.6086 85.5553C54.6364 85.6548 54.6901 85.745 54.7642 85.817L57.4603 88.4414L56.8245 92.1485L56.8169 92.2126C56.8108 92.3158 56.8322 92.4188 56.879 92.511C56.9258 92.6032 56.9962 92.6813 57.0831 92.7373C57.17 92.7934 57.2702 92.8253 57.3735 92.8299C57.4768 92.8344 57.5794 92.8114 57.6709 92.7633L60.9994 91.0133L64.3203 92.7633L64.3787 92.7901C64.4749 92.828 64.5796 92.8397 64.6819 92.8238C64.7841 92.808 64.8803 92.7652 64.9606 92.6999C65.0409 92.6346 65.1023 92.5491 65.1386 92.4521C65.175 92.3553 65.1849 92.2504 65.1673 92.1485L64.5309 88.4414L67.2282 85.8164L67.2737 85.7668C67.3387 85.6867 67.3813 85.5909 67.3972 85.489C67.4131 85.3871 67.4017 85.2828 67.3642 85.1868C67.3267 85.0908 67.2643 85.0064 67.1836 84.9423C67.1028 84.8781 67.0065 84.8366 66.9045 84.8218L63.1828 84.2816L61.5192 80.9099C61.471 80.8123 61.3965 80.73 61.304 80.6725C61.2115 80.615 61.1048 80.5845 60.9959 80.5845C60.887 80.5845 60.7803 80.615 60.6878 80.6725C60.5953 80.73 60.5208 80.8123 60.4727 80.9099L58.8084 84.2816L55.0867 84.8212Z" stroke="#000000" stroke-opacity="1.000000" stroke-width="0.000000" stroke-linejoin="round"/>
	</g>
	<rect id="Frame" width="14.000000" height="14.000000" transform="translate(70.000000 80.000000)" fill="#FFFFFF" fill-opacity="0"/>
	<g clip-path="url(#clip1_477)">
		<path id="Vector" d="M74.8084 84.2816L71.0867 84.8212L71.0208 84.8346C70.921 84.8611 70.8301 84.9136 70.7572 84.9868C70.6844 85.0599 70.6322 85.1511 70.6061 85.251C70.58 85.3509 70.5809 85.4559 70.6086 85.5553C70.6364 85.6548 70.6901 85.745 70.7642 85.817L73.4603 88.4414L72.8245 92.1485L72.8169 92.2126C72.8108 92.3158 72.8322 92.4188 72.879 92.511C72.9258 92.6032 72.9962 92.6813 73.0831 92.7373C73.17 92.7934 73.2702 92.8253 73.3735 92.8299C73.4768 92.8344 73.5794 92.8114 73.6709 92.7633L76.9994 91.0133L80.3203 92.7633L80.3787 92.7901C80.4749 92.828 80.5796 92.8397 80.6819 92.8238C80.7841 92.808 80.8803 92.7652 80.9606 92.6999C81.0409 92.6346 81.1023 92.5491 81.1386 92.4521C81.175 92.3553 81.1849 92.2504 81.1673 92.1485L80.5309 88.4414L83.2282 85.8164L83.2737 85.7668C83.3387 85.6867 83.3813 85.5909 83.3972 85.489C83.4131 85.3871 83.4017 85.2828 83.3642 85.1868C83.3267 85.0908 83.2643 85.0064 83.1836 84.9423C83.1028 84.8781 83.0065 84.8366 82.9045 84.8218L79.1828 84.2816L77.5192 80.9099C77.471 80.8123 77.3965 80.73 77.304 80.6725C77.2115 80.615 77.1048 80.5845 76.9959 80.5845C76.887 80.5845 76.7803 80.615 76.6878 80.6725C76.5953 80.73 76.5208 80.8123 76.4727 80.9099L74.8084 84.2816Z" fill="#C5C5C5" fill-opacity="1.000000" fill-rule="nonzero"/>
		<path id="Vector" d="M71.0867 84.8212L71.0208 84.8346C70.921 84.8611 70.8301 84.9136 70.7572 84.9868C70.6844 85.0599 70.6322 85.1511 70.6061 85.251C70.58 85.3509 70.5809 85.4559 70.6086 85.5553C70.6364 85.6548 70.6901 85.745 70.7642 85.817L73.4603 88.4414L72.8245 92.1485L72.8169 92.2126C72.8108 92.3158 72.8322 92.4188 72.879 92.511C72.9258 92.6032 72.9962 92.6813 73.0831 92.7373C73.17 92.7934 73.2702 92.8253 73.3735 92.8299C73.4768 92.8344 73.5794 92.8114 73.6709 92.7633L76.9994 91.0133L80.3203 92.7633L80.3787 92.7901C80.4749 92.828 80.5796 92.8397 80.6819 92.8238C80.7841 92.808 80.8803 92.7652 80.9606 92.6999C81.0409 92.6346 81.1023 92.5491 81.1386 92.4521C81.175 92.3553 81.1849 92.2504 81.1673 92.1485L80.5309 88.4414L83.2282 85.8164L83.2737 85.7668C83.3387 85.6867 83.3813 85.5909 83.3972 85.489C83.4131 85.3871 83.4017 85.2828 83.3642 85.1868C83.3267 85.0908 83.2643 85.0064 83.1836 84.9423C83.1028 84.8781 83.0065 84.8366 82.9045 84.8218L79.1828 84.2816L77.5192 80.9099C77.471 80.8123 77.3965 80.73 77.304 80.6725C77.2115 80.615 77.1048 80.5845 76.9959 80.5845C76.887 80.5845 76.7803 80.615 76.6878 80.6725C76.5953 80.73 76.5208 80.8123 76.4727 80.9099L74.8084 84.2816L71.0867 84.8212Z" stroke="#C5C5C5" stroke-opacity="1.000000" stroke-width="0.000000" stroke-linejoin="round"/>
	</g>
	<rect id="Frame" width="14.000000" height="14.000000" transform="translate(86.000000 80.000000)" fill="#FFFFFF" fill-opacity="0"/>
	<g clip-path="url(#clip1_480)">
		<path id="Vector" d="M90.8084 84.2816L87.0867 84.8212L87.0208 84.8346C86.921 84.8611 86.8301 84.9136 86.7572 84.9868C86.6844 85.0599 86.6322 85.1511 86.6061 85.251C86.58 85.3509 86.5809 85.4559 86.6086 85.5553C86.6364 85.6548 86.6901 85.745 86.7642 85.817L89.4603 88.4414L88.8245 92.1485L88.8169 92.2126C88.8108 92.3158 88.8322 92.4188 88.879 92.511C88.9258 92.6032 88.9962 92.6813 89.0831 92.7373C89.17 92.7934 89.2702 92.8253 89.3735 92.8299C89.4768 92.8344 89.5794 92.8114 89.6709 92.7633L92.9994 91.0133L96.3203 92.7633L96.3787 92.7901C96.4749 92.828 96.5796 92.8397 96.6818 92.8238C96.7841 92.808 96.8803 92.7652 96.9606 92.6999C97.0408 92.6346 97.1023 92.5491 97.1386 92.4521C97.175 92.3553 97.1849 92.2504 97.1673 92.1485L96.5309 88.4414L99.2282 85.8164L99.2737 85.7668C99.3387 85.6867 99.3813 85.5909 99.3972 85.489C99.4131 85.3871 99.4017 85.2828 99.3642 85.1868C99.3267 85.0908 99.2643 85.0064 99.1836 84.9423C99.1028 84.8781 99.0065 84.8366 98.9045 84.8218L95.1828 84.2816L93.5192 80.9099C93.471 80.8123 93.3965 80.73 93.304 80.6725C93.2115 80.615 93.1048 80.5845 92.9959 80.5845C92.887 80.5845 92.7803 80.615 92.6878 80.6725C92.5953 80.73 92.5208 80.8123 92.4727 80.9099L90.8084 84.2816Z" fill="#C5C5C5" fill-opacity="1.000000" fill-rule="nonzero"/>
		<path id="Vector" d="M87.0867 84.8212L87.0208 84.8346C86.921 84.8611 86.8301 84.9136 86.7572 84.9868C86.6844 85.0599 86.6322 85.1511 86.6061 85.251C86.58 85.3509 86.5809 85.4559 86.6086 85.5553C86.6364 85.6548 86.6901 85.745 86.7642 85.817L89.4603 88.4414L88.8245 92.1485L88.8169 92.2126C88.8108 92.3158 88.8322 92.4188 88.879 92.511C88.9258 92.6032 88.9962 92.6813 89.0831 92.7373C89.17 92.7934 89.2702 92.8253 89.3735 92.8299C89.4768 92.8344 89.5794 92.8114 89.6709 92.7633L92.9994 91.0133L96.3203 92.7633L96.3787 92.7901C96.4749 92.828 96.5796 92.8397 96.6818 92.8238C96.7841 92.808 96.8803 92.7652 96.9606 92.6999C97.0408 92.6346 97.1023 92.5491 97.1386 92.4521C97.175 92.3553 97.1849 92.2504 97.1673 92.1485L96.5309 88.4414L99.2282 85.8164L99.2737 85.7668C99.3387 85.6867 99.3813 85.5909 99.3972 85.489C99.4131 85.3871 99.4017 85.2828 99.3642 85.1868C99.3267 85.0908 99.2643 85.0064 99.1836 84.9423C99.1028 84.8781 99.0065 84.8366 98.9045 84.8218L95.1828 84.2816L93.5192 80.9099C93.471 80.8123 93.3965 80.73 93.304 80.6725C93.2115 80.615 93.1048 80.5845 92.9959 80.5845C92.887 80.5845 92.7803 80.615 92.6878 80.6725C92.5953 80.73 92.5208 80.8123 92.4727 80.9099L90.8084 84.2816L87.0867 84.8212Z" stroke="#C5C5C5" stroke-opacity="1.000000" stroke-width="0.000000" stroke-linejoin="round"/>
	</g>
	<rect id="Rectangle 103" x="112.000000" y="83.000000" rx="4.000000" width="75.000000" height="8.000000" fill="#D9D9D9" fill-opacity="1.000000"/>
	<path id="15" d="M4.1005 120.201L4.1005 130L2.71622 130L2.71622 121.417L0.504793 121.417L0.504793 120.201L4.1005 120.201ZM9.04466 124.107Q11.1433 124.107 12.1311 124.897Q13.1189 125.687 13.1189 127.061Q13.1189 127.929 12.7053 128.623Q12.2917 129.313 11.4577 129.713Q10.6272 130.113 9.40696 130.113Q8.37132 130.113 7.40403 129.798Q6.44016 129.48 5.81126 128.923L6.45384 127.816Q6.9597 128.291 7.74241 128.578Q8.52513 128.865 9.39329 128.865Q10.5007 128.865 11.1091 128.397Q11.7175 127.929 11.7175 127.115Q11.7175 126.233 11.0442 125.779Q10.3742 125.324 8.75071 125.324L6.52561 125.324L7.04173 120.201L12.572 120.201L12.572 121.417L8.21751 121.417L7.95091 124.107L9.04466 124.107Z" fill="#000000" fill-opacity="1.000000" fill-rule="evenodd"/>
	<rect id="Frame" width="14.000000" height="14.000000" transform="translate(22.000000 118.000000)" fill="#FFFFFF" fill-opacity="0"/>
	<g clip-path="url(#clip1_489)">
		<path id="Vector" d="M26.8084 122.282L23.0867 122.821L23.0208 122.835C22.921 122.861 22.8301 122.914 22.7572 122.987C22.6844 123.06 22.6322 123.151 22.6061 123.251C22.58 123.351 22.5809 123.456 22.6086 123.555C22.6364 123.655 22.6901 123.745 22.7642 123.817L25.4603 126.441L24.8245 130.148L24.8169 130.213C24.8108 130.316 24.8322 130.419 24.879 130.511C24.9258 130.603 24.9962 130.681 25.0831 130.737C25.17 130.793 25.2702 130.825 25.3735 130.83C25.4768 130.834 25.5794 130.811 25.6709 130.763L28.9994 129.013L32.3203 130.763L32.3787 130.79C32.4749 130.828 32.5796 130.84 32.6819 130.824C32.7841 130.808 32.8803 130.765 32.9606 130.7C33.0409 130.635 33.1023 130.549 33.1386 130.452C33.175 130.355 33.1849 130.25 33.1673 130.148L32.5309 126.441L35.2282 123.816L35.2737 123.767C35.3387 123.687 35.3813 123.591 35.3972 123.489C35.4131 123.387 35.4017 123.283 35.3642 123.187C35.3267 123.091 35.2643 123.006 35.1836 122.942C35.1028 122.878 35.0065 122.837 34.9045 122.822L31.1828 122.282L29.5192 118.91C29.471 118.812 29.3965 118.73 29.304 118.672C29.2115 118.615 29.1048 118.584 28.9959 118.584C28.887 118.584 28.7803 118.615 28.6878 118.672C28.5953 118.73 28.5208 118.812 28.4727 118.91L26.8084 122.282Z" fill="#000000" fill-opacity="1.000000" fill-rule="nonzero"/>
		<path id="Vector" d="M23.0867 122.821L23.0208 122.835C22.921 122.861 22.8301 122.914 22.7572 122.987C22.6844 123.06 22.6322 123.151 22.6061 123.251C22.58 123.351 22.5809 123.456 22.6086 123.555C22.6364 123.655 22.6901 123.745 22.7642 123.817L25.4603 126.441L24.8245 130.148L24.8169 130.213C24.8108 130.316 24.8322 130.419 24.879 130.511C24.9258 130.603 24.9962 130.681 25.0831 130.737C25.17 130.793 25.2702 130.825 25.3735 130.83C25.4768 130.834 25.5794 130.811 25.6709 130.763L28.9994 129.013L32.3203 130.763L32.3787 130.79C32.4749 130.828 32.5796 130.84 32.6819 130.824C32.7841 130.808 32.8803 130.765 32.9606 130.7C33.0409 130.635 33.1023 130.549 33.1386 130.452C33.175 130.355 33.1849 130.25 33.1673 130.148L32.5309 126.441L35.2282 123.816L35.2737 123.767C35.3387 123.687 35.3813 123.591 35.3972 123.489C35.4131 123.387 35.4017 123.283 35.3642 123.187C35.3267 123.091 35.2643 123.006 35.1836 122.942C35.1028 122.878 35.0065 122.837 34.9045 122.822L31.1828 122.282L29.5192 118.91C29.471 118.812 29.3965 118.73 29.304 118.672C29.2115 118.615 29.1048 118.584 28.9959 118.584C28.887 118.584 28.7803 118.615 28.6878 118.672C28.5953 118.73 28.5208 118.812 28.4727 118.91L26.8084 122.282L23.0867 122.821Z" stroke="#000000" stroke-opacity="1.000000" stroke-width="0.000000" stroke-linejoin="round"/>
	</g>
	<rect id="Frame" width="14.000000" height="14.000000" transform="translate(38.000000 118.000000)" fill="#FFFFFF" fill-opacity="0"/>
	<g clip-path="url(#clip1_492)">
		<path id="Vector" d="M42.8084 122.282L39.0867 122.821L39.0208 122.835C38.921 122.861 38.8301 122.914 38.7572 122.987C38.6844 123.06 38.6322 123.151 38.6061 123.251C38.58 123.351 38.5809 123.456 38.6086 123.555C38.6364 123.655 38.6901 123.745 38.7642 123.817L41.4603 126.441L40.8245 130.148L40.8169 130.213C40.8108 130.316 40.8322 130.419 40.879 130.511C40.9258 130.603 40.9962 130.681 41.0831 130.737C41.17 130.793 41.2702 130.825 41.3735 130.83C41.4768 130.834 41.5794 130.811 41.6709 130.763L44.9994 129.013L48.3203 130.763L48.3787 130.79C48.4749 130.828 48.5796 130.84 48.6819 130.824C48.7841 130.808 48.8803 130.765 48.9606 130.7C49.0409 130.635 49.1023 130.549 49.1386 130.452C49.175 130.355 49.1849 130.25 49.1673 130.148L48.5309 126.441L51.2282 123.816L51.2737 123.767C51.3387 123.687 51.3813 123.591 51.3972 123.489C51.4131 123.387 51.4017 123.283 51.3642 123.187C51.3267 123.091 51.2643 123.006 51.1836 122.942C51.1028 122.878 51.0065 122.837 50.9045 122.822L47.1828 122.282L45.5192 118.91C45.471 118.812 45.3965 118.73 45.304 118.672C45.2115 118.615 45.1048 118.584 44.9959 118.584C44.887 118.584 44.7803 118.615 44.6878 118.672C44.5953 118.73 44.5208 118.812 44.4727 118.91L42.8084 122.282Z" fill="#000000" fill-opacity="1.000000" fill-rule="nonzero"/>
		<path id="Vector" d="M39.0867 122.821L39.0208 122.835C38.921 122.861 38.8301 122.914 38.7572 122.987C38.6844 123.06 38.6322 123.151 38.6061 123.251C38.58 123.351 38.5809 123.456 38.6086 123.555C38.6364 123.655 38.6901 123.745 38.7642 123.817L41.4603 126.441L40.8245 130.148L40.8169 130.213C40.8108 130.316 40.8322 130.419 40.879 130.511C40.9258 130.603 40.9962 130.681 41.0831 130.737C41.17 130.793 41.2702 130.825 41.3735 130.83C41.4768 130.834 41.5794 130.811 41.6709 130.763L44.9994 129.013L48.3203 130.763L48.3787 130.79C48.4749 130.828 48.5796 130.84 48.6819 130.824C48.7841 130.808 48.8803 130.765 48.9606 130.7C49.0409 130.635 49.1023 130.549 49.1386 130.452C49.175 130.355 49.1849 130.25 49.1673 130.148L48.5309 126.441L51.2282 123.816L51.2737 123.767C51.3387 123.687 51.3813 123.591 51.3972 123.489C51.4131 123.387 51.4017 123.283 51.3642 123.187C51.3267 123.091 51.2643 123.006 51.1836 122.942C51.1028 122.878 51.0065 122.837 50.9045 122.822L47.1828 122.282L45.5192 118.91C45.471 118.812 45.3965 118.73 45.304 118.672C45.2115 118.615 45.1048 118.584 44.9959 118.584C44.887 118.584 44.7803 118.615 44.6878 118.672C44.5953 118.73 44.5208 118.812 44.4727 118.91L42.8084 122.282L39.0867 122.821Z" stroke="#000000" stroke-opacity="1.000000" stroke-width="0.000000" stroke-linejoin="round"/>
	</g>
	<rect id="Frame" width="14.000000" height="14.000000" transform="translate(54.000000 118.000000)" fill="#FFFFFF" fill-opacity="0"/>
	<g clip-path="url(#clip1_495)">
		<path id="Vector" d="M58.8084 122.282L55.0867 122.821L55.0208 122.835C54.921 122.861 54.8301 122.914 54.7572 122.987C54.6844 123.06 54.6322 123.151 54.6061 123.251C54.58 123.351 54.5809 123.456 54.6086 123.555C54.6364 123.655 54.6901 123.745 54.7642 123.817L57.4603 126.441L56.8245 130.148L56.8169 130.213C56.8108 130.316 56.8322 130.419 56.879 130.511C56.9258 130.603 56.9962 130.681 57.0831 130.737C57.17 130.793 57.2702 130.825 57.3735 130.83C57.4768 130.834 57.5794 130.811 57.6709 130.763L60.9994 129.013L64.3203 130.763L64.3787 130.79C64.4749 130.828 64.5796 130.84 64.6819 130.824C64.7841 130.808 64.8803 130.765 64.9606 130.7C65.0409 130.635 65.1023 130.549 65.1386 130.452C65.175 130.355 65.1849 130.25 65.1673 130.148L64.5309 126.441L67.2282 123.816L67.2737 123.767C67.3387 123.687 67.3813 123.591 67.3972 123.489C67.4131 123.387 67.4017 123.283 67.3642 123.187C67.3267 123.091 67.2643 123.006 67.1836 122.942C67.1028 122.878 67.0065 122.837 66.9045 122.822L63.1828 122.282L61.5192 118.91C61.471 118.812 61.3965 118.73 61.304 118.672C61.2115 118.615 61.1048 118.584 60.9959 118.584C60.887 118.584 60.7803 118.615 60.6878 118.672C60.5953 118.73 60.5208 118.812 60.4727 118.91L58.8084 122.282Z" fill="#C5C5C5" fill-opacity="1.000000" fill-rule="nonzero"/>
		<path id="Vector" d="M55.0867 122.821L55.0208 122.835C54.921 122.861 54.8301 122.914 54.7572 122.987C54.6844 123.06 54.6322 123.151 54.6061 123.251C54.58 123.351 54.5809 123.456 54.6086 123.555C54.6364 123.655 54.6901 123.745 54.7642 123.817L57.4603 126.441L56.8245 130.148L56.8169 130.213C56.8108 130.316 56.8322 130.419 56.879 130.511C56.9258 130.603 56.9962 130.681 57.0831 130.737C57.17 130.793 57.2702 130.825 57.3735 130.83C57.4768 130.834 57.5794 130.811 57.6709 130.763L60.9994 129.013L64.3203 130.763L64.3787 130.79C64.4749 130.828 64.5796 130.84 64.6819 130.824C64.7841 130.808 64.8803 130.765 64.9606 130.7C65.0409 130.635 65.1023 130.549 65.1386 130.452C65.175 130.355 65.1849 130.25 65.1673 130.148L64.5309 126.441L67.2282 123.816L67.2737 123.767C67.3387 123.687 67.3813 123.591 67.3972 123.489C67.4131 123.387 67.4017 123.283 67.3642 123.187C67.3267 123.091 67.2643 123.006 67.1836 122.942C67.1028 122.878 67.0065 122.837 66.9045 122.822L63.1828 122.282L61.5192 118.91C61.471 118.812 61.3965 118.73 61.304 118.672C61.2115 118.615 61.1048 118.584 60.9959 118.584C60.887 118.584 60.7803 118.615 60.6878 118.672C60.5953 118.73 60.5208 118.812 60.4727 118.91L58.8084 122.282L55.0867 122.821Z" stroke="#C5C5C5" stroke-opacity="1.000000" stroke-width="0.000000" stroke-linejoin="round"/>
	</g>
	<rect id="Frame" width="14.000000" height="14.000000" transform="translate(70.000000 118.000000)" fill="#FFFFFF" fill-opacity="0"/>
	<g clip-path="url(#clip1_498)">
		<path id="Vector" d="M74.8084 122.282L71.0867 122.821L71.0208 122.835C70.921 122.861 70.8301 122.914 70.7572 122.987C70.6844 123.06 70.6322 123.151 70.6061 123.251C70.58 123.351 70.5809 123.456 70.6086 123.555C70.6364 123.655 70.6901 123.745 70.7642 123.817L73.4603 126.441L72.8245 130.148L72.8169 130.213C72.8108 130.316 72.8322 130.419 72.879 130.511C72.9258 130.603 72.9962 130.681 73.0831 130.737C73.17 130.793 73.2702 130.825 73.3735 130.83C73.4768 130.834 73.5794 130.811 73.6709 130.763L76.9994 129.013L80.3203 130.763L80.3787 130.79C80.4749 130.828 80.5796 130.84 80.6819 130.824C80.7841 130.808 80.8803 130.765 80.9606 130.7C81.0409 130.635 81.1023 130.549 81.1386 130.452C81.175 130.355 81.1849 130.25 81.1673 130.148L80.5309 126.441L83.2282 123.816L83.2737 123.767C83.3387 123.687 83.3813 123.591 83.3972 123.489C83.4131 123.387 83.4017 123.283 83.3642 123.187C83.3267 123.091 83.2643 123.006 83.1836 122.942C83.1028 122.878 83.0065 122.837 82.9045 122.822L79.1828 122.282L77.5192 118.91C77.471 118.812 77.3965 118.73 77.304 118.672C77.2115 118.615 77.1048 118.584 76.9959 118.584C76.887 118.584 76.7803 118.615 76.6878 118.672C76.5953 118.73 76.5208 118.812 76.4727 118.91L74.8084 122.282Z" fill="#C5C5C5" fill-opacity="1.000000" fill-rule="nonzero"/>
		<path id="Vector" d="M71.0867 122.821L71.0208 122.835C70.921 122.861 70.8301 122.914 70.7572 122.987C70.6844 123.06 70.6322 123.151 70.6061 123.251C70.58 123.351 70.5809 123.456 70.6086 123.555C70.6364 123.655 70.6901 123.745 70.7642 123.817L73.4603 126.441L72.8245 130.148L72.8169 130.213C72.8108 130.316 72.8322 130.419 72.879 130.511C72.9258 130.603 72.9962 130.681 73.0831 130.737C73.17 130.793 73.2702 130.825 73.3735 130.83C73.4768 130.834 73.5794 130.811 73.6709 130.763L76.9994 129.013L80.3203 130.763L80.3787 130.79C80.4749 130.828 80.5796 130.84 80.6819 130.824C80.7841 130.808 80.8803 130.765 80.9606 130.7C81.0409 130.635 81.1023 130.549 81.1386 130.452C81.175 130.355 81.1849 130.25 81.1673 130.148L80.5309 126.441L83.2282 123.816L83.2737 123.767C83.3387 123.687 83.3813 123.591 83.3972 123.489C83.4131 123.387 83.4017 123.283 83.3642 123.187C83.3267 123.091 83.2643 123.006 83.1836 122.942C83.1028 122.878 83.0065 122.837 82.9045 122.822L79.1828 122.282L77.5192 118.91C77.471 118.812 77.3965 118.73 77.304 118.672C77.2115 118.615 77.1048 118.584 76.9959 118.584C76.887 118.584 76.7803 118.615 76.6878 118.672C76.5953 118.73 76.5208 118.812 76.4727 118.91L74.8084 122.282L71.0867 122.821Z" stroke="#C5C5C5" stroke-opacity="1.000000" stroke-width="0.000000" stroke-linejoin="round"/>
	</g>
	<rect id="Frame" width="14.000000" height="14.000000" transform="translate(86.000000 118.000000)" fill="#FFFFFF" fill-opacity="0"/>
	<g clip-path="url(#clip1_501)">
		<path id="Vector" d="M90.8084 122.282L87.0867 122.821L87.0208 122.835C86.921 122.861 86.8301 122.914 86.7572 122.987C86.6844 123.06 86.6322 123.151 86.6061 123.251C86.58 123.351 86.5809 123.456 86.6086 123.555C86.6364 123.655 86.6901 123.745 86.7642 123.817L89.4603 126.441L88.8245 130.148L88.8169 130.213C88.8108 130.316 88.8322 130.419 88.879 130.511C88.9258 130.603 88.9962 130.681 89.0831 130.737C89.17 130.793 89.2702 130.825 89.3735 130.83C89.4768 130.834 89.5794 130.811 89.6709 130.763L92.9994 129.013L96.3203 130.763L96.3787 130.79C96.4749 130.828 96.5796 130.84 96.6818 130.824C96.7841 130.808 96.8803 130.765 96.9606 130.7C97.0408 130.635 97.1023 130.549 97.1386 130.452C97.175 130.355 97.1849 130.25 97.1673 130.148L96.5309 126.441L99.2282 123.816L99.2737 123.767C99.3387 123.687 99.3813 123.591 99.3972 123.489C99.4131 123.387 99.4017 123.283 99.3642 123.187C99.3267 123.091 99.2643 123.006 99.1836 122.942C99.1028 122.878 99.0065 122.837 98.9045 122.822L95.1828 122.282L93.5192 118.91C93.471 118.812 93.3965 118.73 93.304 118.672C93.2115 118.615 93.1048 118.584 92.9959 118.584C92.887 118.584 92.7803 118.615 92.6878 118.672C92.5953 118.73 92.5208 118.812 92.4727 118.91L90.8084 122.282Z" fill="#C5C5C5" fill-opacity="1.000000" fill-rule="nonzero"/>
		<path id="Vector" d="M87.0867 122.821L87.0208 122.835C86.921 122.861 86.8301 122.914 86.7572 122.987C86.6844 123.06 86.6322 123.151 86.6061 123.251C86.58 123.351 86.5809 123.456 86.6086 123.555C86.6364 123.655 86.6901 123.745 86.7642 123.817L89.4603 126.441L88.8245 130.148L88.8169 130.213C88.8108 130.316 88.8322 130.419 88.879 130.511C88.9258 130.603 88.9962 130.681 89.0831 130.737C89.17 130.793 89.2702 130.825 89.3735 130.83C89.4768 130.834 89.5794 130.811 89.6709 130.763L92.9994 129.013L96.3203 130.763L96.3787 130.79C96.4749 130.828 96.5796 130.84 96.6818 130.824C96.7841 130.808 96.8803 130.765 96.9606 130.7C97.0408 130.635 97.1023 130.549 97.1386 130.452C97.175 130.355 97.1849 130.25 97.1673 130.148L96.5309 126.441L99.2282 123.816L99.2737 123.767C99.3387 123.687 99.3813 123.591 99.3972 123.489C99.4131 123.387 99.4017 123.283 99.3642 123.187C99.3267 123.091 99.2643 123.006 99.1836 122.942C99.1028 122.878 99.0065 122.837 98.9045 122.822L95.1828 122.282L93.5192 118.91C93.471 118.812 93.3965 118.73 93.304 118.672C93.2115 118.615 93.1048 118.584 92.9959 118.584C92.887 118.584 92.7803 118.615 92.6878 118.672C92.5953 118.73 92.5208 118.812 92.4727 118.91L90.8084 122.282L87.0867 122.821Z" stroke="#C5C5C5" stroke-opacity="1.000000" stroke-width="0.000000" stroke-linejoin="round"/>
	</g>
	<rect id="Rectangle 104" x="112.000000" y="121.000000" rx="4.000000" width="50.000000" height="8.000000" fill="#D9D9D9" fill-opacity="1.000000"/>
	<path id="2" d="M8.04255 166.783L8.04255 168L1.00153 168L1.00153 167.046L4.9903 163.198Q5.71833 162.497 5.96784 161.988Q6.22077 161.475 6.22077 160.959Q6.22077 160.187 5.68073 159.763Q5.14411 159.335 4.13581 159.335Q2.51227 159.335 1.63044 160.398L0.676824 159.571Q1.25104 158.871 2.18073 158.481Q3.11384 158.088 4.26227 158.088Q5.80036 158.088 6.70954 158.823Q7.62214 159.558 7.62214 160.819Q7.62214 161.602 7.28376 162.302Q6.9488 163.003 6.01227 163.898L3.01471 166.783L8.04255 166.783Z" fill="#000000" fill-opacity="1.000000" fill-rule="evenodd"/>
	<rect id="Frame" width="14.000000" height="14.000000" transform="translate(17.000000 156.000000)" fill="#FFFFFF" fill-opacity="0"/>
	<g clip-path="url(#clip1_510)">
		<path id="Vector" d="M21.8084 160.282L18.0867 160.821L18.0208 160.835C17.921 160.861 17.8301 160.914 17.7572 160.987C17.6844 161.06 17.6322 161.151 17.6061 161.251C17.58 161.351 17.5809 161.456 17.6086 161.555C17.6364 161.655 17.6901 161.745 17.7642 161.817L20.4603 164.441L19.8245 168.148L19.8169 168.213C19.8108 168.316 19.8322 168.419 19.879 168.511C19.9258 168.603 19.9962 168.681 20.0831 168.737C20.17 168.793 20.2702 168.825 20.3735 168.83C20.4768 168.834 20.5794 168.811 20.6709 168.763L23.9994 167.013L27.3203 168.763L27.3787 168.79C27.4749 168.828 27.5796 168.84 27.6819 168.824C27.7841 168.808 27.8803 168.765 27.9606 168.7C28.0409 168.635 28.1023 168.549 28.1386 168.452C28.175 168.355 28.1849 168.25 28.1673 168.148L27.5309 164.441L30.2282 161.816L30.2737 161.767C30.3387 161.687 30.3813 161.591 30.3972 161.489C30.4131 161.387 30.4017 161.283 30.3642 161.187C30.3267 161.091 30.2643 161.006 30.1836 160.942C30.1028 160.878 30.0065 160.837 29.9045 160.822L26.1828 160.282L24.5192 156.91C24.471 156.812 24.3965 156.73 24.304 156.672C24.2115 156.615 24.1048 156.584 23.9959 156.584C23.887 156.584 23.7803 156.615 23.6878 156.672C23.5953 156.73 23.5208 156.812 23.4727 156.91L21.8084 160.282Z" fill="#000000" fill-opacity="1.000000" fill-rule="nonzero"/>
		<path id="Vector" d="M18.0867 160.821L18.0208 160.835C17.921 160.861 17.8301 160.914 17.7572 160.987C17.6844 161.06 17.6322 161.151 17.6061 161.251C17.58 161.351 17.5809 161.456 17.6086 161.555C17.6364 161.655 17.6901 161.745 17.7642 161.817L20.4603 164.441L19.8245 168.148L19.8169 168.213C19.8108 168.316 19.8322 168.419 19.879 168.511C19.9258 168.603 19.9962 168.681 20.0831 168.737C20.17 168.793 20.2702 168.825 20.3735 168.83C20.4768 168.834 20.5794 168.811 20.6709 168.763L23.9994 167.013L27.3203 168.763L27.3787 168.79C27.4749 168.828 27.5796 168.84 27.6819 168.824C27.7841 168.808 27.8803 168.765 27.9606 168.7C28.0409 168.635 28.1023 168.549 28.1386 168.452C28.175 168.355 28.1849 168.25 28.1673 168.148L27.5309 164.441L30.2282 161.816L30.2737 161.767C30.3387 161.687 30.3813 161.591 30.3972 161.489C30.4131 161.387 30.4017 161.283 30.3642 161.187C30.3267 161.091 30.2643 161.006 30.1836 160.942C30.1028 160.878 30.0065 160.837 29.9045 160.822L26.1828 160.282L24.5192 156.91C24.471 156.812 24.3965 156.73 24.304 156.672C24.2115 156.615 24.1048 156.584 23.9959 156.584C23.887 156.584 23.7803 156.615 23.6878 156.672C23.5953 156.73 23.5208 156.812 23.4727 156.91L21.8084 160.282L18.0867 160.821Z" stroke="#000000" stroke-opacity="1.000000" stroke-width="0.000000" stroke-linejoin="round"/>
	</g>
	<rect id="Frame" width="14.000000" height="14.000000" transform="translate(33.000000 156.000000)" fill="#FFFFFF" fill-opacity="0"/>
	<g clip-path="url(#clip1_513)">
		<path id="Vector" d="M37.8084 160.282L34.0867 160.821L34.0208 160.835C33.921 160.861 33.8301 160.914 33.7572 160.987C33.6844 161.06 33.6322 161.151 33.6061 161.251C33.58 161.351 33.5809 161.456 33.6086 161.555C33.6364 161.655 33.6901 161.745 33.7642 161.817L36.4603 164.441L35.8245 168.148L35.8169 168.213C35.8108 168.316 35.8322 168.419 35.879 168.511C35.9258 168.603 35.9962 168.681 36.0831 168.737C36.17 168.793 36.2702 168.825 36.3735 168.83C36.4768 168.834 36.5794 168.811 36.6709 168.763L39.9994 167.013L43.3203 168.763L43.3787 168.79C43.4749 168.828 43.5796 168.84 43.6819 168.824C43.7841 168.808 43.8803 168.765 43.9606 168.7C44.0409 168.635 44.1023 168.549 44.1386 168.452C44.175 168.355 44.1849 168.25 44.1673 168.148L43.5309 164.441L46.2282 161.816L46.2737 161.767C46.3387 161.687 46.3813 161.591 46.3972 161.489C46.4131 161.387 46.4017 161.283 46.3642 161.187C46.3267 161.091 46.2643 161.006 46.1836 160.942C46.1028 160.878 46.0065 160.837 45.9045 160.822L42.1828 160.282L40.5192 156.91C40.471 156.812 40.3965 156.73 40.304 156.672C40.2115 156.615 40.1048 156.584 39.9959 156.584C39.887 156.584 39.7803 156.615 39.6878 156.672C39.5953 156.73 39.5208 156.812 39.4727 156.91L37.8084 160.282Z" fill="#C5C5C5" fill-opacity="1.000000" fill-rule="nonzero"/>
		<path id="Vector" d="M34.0867 160.821L34.0208 160.835C33.921 160.861 33.8301 160.914 33.7572 160.987C33.6844 161.06 33.6322 161.151 33.6061 161.251C33.58 161.351 33.5809 161.456 33.6086 161.555C33.6364 161.655 33.6901 161.745 33.7642 161.817L36.4603 164.441L35.8245 168.148L35.8169 168.213C35.8108 168.316 35.8322 168.419 35.879 168.511C35.9258 168.603 35.9962 168.681 36.0831 168.737C36.17 168.793 36.2702 168.825 36.3735 168.83C36.4768 168.834 36.5794 168.811 36.6709 168.763L39.9994 167.013L43.3203 168.763L43.3787 168.79C43.4749 168.828 43.5796 168.84 43.6819 168.824C43.7841 168.808 43.8803 168.765 43.9606 168.7C44.0409 168.635 44.1023 168.549 44.1386 168.452C44.175 168.355 44.1849 168.25 44.1673 168.148L43.5309 164.441L46.2282 161.816L46.2737 161.767C46.3387 161.687 46.3813 161.591 46.3972 161.489C46.4131 161.387 46.4017 161.283 46.3642 161.187C46.3267 161.091 46.2643 161.006 46.1836 160.942C46.1028 160.878 46.0065 160.837 45.9045 160.822L42.1828 160.282L40.5192 156.91C40.471 156.812 40.3965 156.73 40.304 156.672C40.2115 156.615 40.1048 156.584 39.9959 156.584C39.887 156.584 39.7803 156.615 39.6878 156.672C39.5953 156.73 39.5208 156.812 39.4727 156.91L37.8084 160.282L34.0867 160.821Z" stroke="#C5C5C5" stroke-opacity="1.000000" stroke-width="0.000000" stroke-linejoin="round"/>
	</g>
	<rect id="Frame" width="14.000000" height="14.000000" transform="translate(49.000000 156.000000)" fill="#FFFFFF" fill-opacity="0"/>
	<g clip-path="url(#clip1_516)">
		<path id="Vector" d="M53.8084 160.282L50.0867 160.821L50.0208 160.835C49.921 160.861 49.8301 160.914 49.7572 160.987C49.6844 161.06 49.6322 161.151 49.6061 161.251C49.58 161.351 49.5809 161.456 49.6086 161.555C49.6364 161.655 49.6901 161.745 49.7642 161.817L52.4603 164.441L51.8245 168.148L51.8169 168.213C51.8108 168.316 51.8322 168.419 51.879 168.511C51.9258 168.603 51.9962 168.681 52.0831 168.737C52.17 168.793 52.2702 168.825 52.3735 168.83C52.4768 168.834 52.5794 168.811 52.6709 168.763L55.9994 167.013L59.3203 168.763L59.3787 168.79C59.4749 168.828 59.5796 168.84 59.6819 168.824C59.7841 168.808 59.8803 168.765 59.9606 168.7C60.0409 168.635 60.1023 168.549 60.1386 168.452C60.175 168.355 60.1849 168.25 60.1673 168.148L59.5309 164.441L62.2282 161.816L62.2737 161.767C62.3387 161.687 62.3813 161.591 62.3972 161.489C62.4131 161.387 62.4017 161.283 62.3642 161.187C62.3267 161.091 62.2643 161.006 62.1836 160.942C62.1028 160.878 62.0065 160.837 61.9045 160.822L58.1828 160.282L56.5192 156.91C56.471 156.812 56.3965 156.73 56.304 156.672C56.2115 156.615 56.1048 156.584 55.9959 156.584C55.887 156.584 55.7803 156.615 55.6878 156.672C55.5953 156.73 55.5208 156.812 55.4727 156.91L53.8084 160.282Z" fill="#C5C5C5" fill-opacity="1.000000" fill-rule="nonzero"/>
		<path id="Vector" d="M50.0867 160.821L50.0208 160.835C49.921 160.861 49.8301 160.914 49.7572 160.987C49.6844 161.06 49.6322 161.151 49.6061 161.251C49.58 161.351 49.5809 161.456 49.6086 161.555C49.6364 161.655 49.6901 161.745 49.7642 161.817L52.4603 164.441L51.8245 168.148L51.8169 168.213C51.8108 168.316 51.8322 168.419 51.879 168.511C51.9258 168.603 51.9962 168.681 52.0831 168.737C52.17 168.793 52.2702 168.825 52.3735 168.83C52.4768 168.834 52.5794 168.811 52.6709 168.763L55.9994 167.013L59.3203 168.763L59.3787 168.79C59.4749 168.828 59.5796 168.84 59.6819 168.824C59.7841 168.808 59.8803 168.765 59.9606 168.7C60.0409 168.635 60.1023 168.549 60.1386 168.452C60.175 168.355 60.1849 168.25 60.1673 168.148L59.5309 164.441L62.2282 161.816L62.2737 161.767C62.3387 161.687 62.3813 161.591 62.3972 161.489C62.4131 161.387 62.4017 161.283 62.3642 161.187C62.3267 161.091 62.2643 161.006 62.1836 160.942C62.1028 160.878 62.0065 160.837 61.9045 160.822L58.1828 160.282L56.5192 156.91C56.471 156.812 56.3965 156.73 56.304 156.672C56.2115 156.615 56.1048 156.584 55.9959 156.584C55.887 156.584 55.7803 156.615 55.6878 156.672C55.5953 156.73 55.5208 156.812 55.4727 156.91L53.8084 160.282L50.0867 160.821Z" stroke="#C5C5C5" stroke-opacity="1.000000" stroke-width="0.000000" stroke-linejoin="round"/>
	</g>
	<rect id="Frame" width="14.000000" height="14.000000" transform="translate(65.000000 156.000000)" fill="#FFFFFF" fill-opacity="0"/>
	<g clip-path="url(#clip1_519)">
		<path id="Vector" d="M69.8084 160.282L66.0867 160.821L66.0208 160.835C65.921 160.861 65.8301 160.914 65.7572 160.987C65.6844 161.06 65.6322 161.151 65.6061 161.251C65.58 161.351 65.5809 161.456 65.6086 161.555C65.6364 161.655 65.6901 161.745 65.7642 161.817L68.4603 164.441L67.8245 168.148L67.8169 168.213C67.8108 168.316 67.8322 168.419 67.879 168.511C67.9258 168.603 67.9962 168.681 68.0831 168.737C68.17 168.793 68.2702 168.825 68.3735 168.83C68.4768 168.834 68.5794 168.811 68.6709 168.763L71.9994 167.013L75.3203 168.763L75.3787 168.79C75.4749 168.828 75.5796 168.84 75.6819 168.824C75.7841 168.808 75.8803 168.765 75.9606 168.7C76.0409 168.635 76.1023 168.549 76.1386 168.452C76.175 168.355 76.1849 168.25 76.1673 168.148L75.5309 164.441L78.2282 161.816L78.2737 161.767C78.3387 161.687 78.3813 161.591 78.3972 161.489C78.4131 161.387 78.4017 161.283 78.3642 161.187C78.3267 161.091 78.2643 161.006 78.1836 160.942C78.1028 160.878 78.0065 160.837 77.9045 160.822L74.1828 160.282L72.5192 156.91C72.471 156.812 72.3965 156.73 72.304 156.672C72.2115 156.615 72.1048 156.584 71.9959 156.584C71.887 156.584 71.7803 156.615 71.6878 156.672C71.5953 156.73 71.5208 156.812 71.4727 156.91L69.8084 160.282Z" fill="#C5C5C5" fill-opacity="1.000000" fill-rule="nonzero"/>
		<path id="Vector" d="M66.0867 160.821L66.0208 160.835C65.921 160.861 65.8301 160.914 65.7572 160.987C65.6844 161.06 65.6322 161.151 65.6061 161.251C65.58 161.351 65.5809 161.456 65.6086 161.555C65.6364 161.655 65.6901 161.745 65.7642 161.817L68.4603 164.441L67.8245 168.148L67.8169 168.213C67.8108 168.316 67.8322 168.419 67.879 168.511C67.9258 168.603 67.9962 168.681 68.0831 168.737C68.17 168.793 68.2702 168.825 68.3735 168.83C68.4768 168.834 68.5794 168.811 68.6709 168.763L71.9994 167.013L75.3203 168.763L75.3787 168.79C75.4749 168.828 75.5796 168.84 75.6819 168.824C75.7841 168.808 75.8803 168.765 75.9606 168.7C76.0409 168.635 76.1023 168.549 76.1386 168.452C76.175 168.355 76.1849 168.25 76.1673 168.148L75.5309 164.441L78.2282 161.816L78.2737 161.767C78.3387 161.687 78.3813 161.591 78.3972 161.489C78.4131 161.387 78.4017 161.283 78.3642 161.187C78.3267 161.091 78.2643 161.006 78.1836 160.942C78.1028 160.878 78.0065 160.837 77.9045 160.822L74.1828 160.282L72.5192 156.91C72.471 156.812 72.3965 156.73 72.304 156.672C72.2115 156.615 72.1048 156.584 71.9959 156.584C71.887 156.584 71.7803 156.615 71.6878 156.672C71.5953 156.73 71.5208 156.812 71.4727 156.91L69.8084 160.282L66.0867 160.821Z" stroke="#C5C5C5" stroke-opacity="1.000000" stroke-width="0.000000" stroke-linejoin="round"/>
	</g>
	<rect id="Frame" width="14.000000" height="14.000000" transform="translate(81.000000 156.000000)" fill="#FFFFFF" fill-opacity="0"/>
	<g clip-path="url(#clip1_522)">
		<path id="Vector" d="M85.8084 160.282L82.0867 160.821L82.0208 160.835C81.921 160.861 81.8301 160.914 81.7572 160.987C81.6844 161.06 81.6322 161.151 81.6061 161.251C81.58 161.351 81.5809 161.456 81.6086 161.555C81.6364 161.655 81.6901 161.745 81.7642 161.817L84.4603 164.441L83.8245 168.148L83.8169 168.213C83.8108 168.316 83.8322 168.419 83.879 168.511C83.9258 168.603 83.9962 168.681 84.0831 168.737C84.17 168.793 84.2702 168.825 84.3735 168.83C84.4768 168.834 84.5794 168.811 84.6709 168.763L87.9994 167.013L91.3203 168.763L91.3787 168.79C91.4749 168.828 91.5796 168.84 91.6818 168.824C91.7841 168.808 91.8803 168.765 91.9606 168.7C92.0408 168.635 92.1023 168.549 92.1386 168.452C92.175 168.355 92.1849 168.25 92.1673 168.148L91.5309 164.441L94.2282 161.816L94.2737 161.767C94.3387 161.687 94.3813 161.591 94.3972 161.489C94.4131 161.387 94.4017 161.283 94.3642 161.187C94.3267 161.091 94.2643 161.006 94.1836 160.942C94.1028 160.878 94.0065 160.837 93.9045 160.822L90.1828 160.282L88.5192 156.91C88.471 156.812 88.3965 156.73 88.304 156.672C88.2115 156.615 88.1048 156.584 87.9959 156.584C87.887 156.584 87.7803 156.615 87.6878 156.672C87.5953 156.73 87.5208 156.812 87.4727 156.91L85.8084 160.282Z" fill="#C5C5C5" fill-opacity="1.000000" fill-rule="nonzero"/>
		<path id="Vector" d="M82.0867 160.821L82.0208 160.835C81.921 160.861 81.8301 160.914 81.7572 160.987C81.6844 161.06 81.6322 161.151 81.6061 161.251C81.58 161.351 81.5809 161.456 81.6086 161.555C81.6364 161.655 81.6901 161.745 81.7642 161.817L84.4603 164.441L83.8245 168.148L83.8169 168.213C83.8108 168.316 83.8322 168.419 83.879 168.511C83.9258 168.603 83.9962 168.681 84.0831 168.737C84.17 168.793 84.2702 168.825 84.3735 168.83C84.4768 168.834 84.5794 168.811 84.6709 168.763L87.9994 167.013L91.3203 168.763L91.3787 168.79C91.4749 168.828 91.5796 168.84 91.6818 168.824C91.7841 168.808 91.8803 168.765 91.9606 168.7C92.0408 168.635 92.1023 168.549 92.1386 168.452C92.175 168.355 92.1849 168.25 92.1673 168.148L91.5309 164.441L94.2282 161.816L94.2737 161.767C94.3387 161.687 94.3813 161.591 94.3972 161.489C94.4131 161.387 94.4017 161.283 94.3642 161.187C94.3267 161.091 94.2643 161.006 94.1836 160.942C94.1028 160.878 94.0065 160.837 93.9045 160.822L90.1828 160.282L88.5192 156.91C88.471 156.812 88.3965 156.73 88.304 156.672C88.2115 156.615 88.1048 156.584 87.9959 156.584C87.887 156.584 87.7803 156.615 87.6878 156.672C87.5953 156.73 87.5208 156.812 87.4727 156.91L85.8084 160.282L82.0867 160.821Z" stroke="#C5C5C5" stroke-opacity="1.000000" stroke-width="0.000000" stroke-linejoin="round"/>
	</g>
	<rect id="Rectangle 105" x="107.000000" y="159.000000" rx="4.000000" width="12.000000" height="8.000000" fill="#D9D9D9" fill-opacity="1.000000"/>
</svg>
