<svg width="36" height="36" viewBox="0 0 36 36" fill="none" xmlns="http://www.w3.org/2000/svg">
<circle cx="18" cy="18" r="18" fill="#E9E9E9"/>
<path d="M21.5562 19.9062L21.1007 20.359C21.1007 20.359 20.0181 21.4355 17.0631 18.4972C14.1081 15.559 15.1907 14.4826 15.1907 14.4826L15.4775 14.1974C16.1841 13.4948 16.2507 12.3669 15.6342 11.5435L14.3733 9.85908C13.6103 8.83992 12.136 8.70529 11.2615 9.57483L9.69185 11.1355C9.25823 11.5667 8.96765 12.1256 9.00289 12.7456C9.09304 14.3318 9.81071 17.7447 13.8154 21.7266C18.0621 25.9492 22.0468 26.117 23.6763 25.9651C24.1917 25.9171 24.6399 25.6546 25.0011 25.2954L26.4217 23.883C27.3806 22.9295 27.1102 21.2949 25.8833 20.628L23.9728 19.5894C23.1672 19.1515 22.1858 19.2801 21.5562 19.9062Z" fill="black"/>
</svg>
