<svg width="220" height="40" viewBox="0 0 220 40" fill="none" xmlns="http://www.w3.org/2000/svg">
<circle cx="20" cy="20" r="20" fill="#E9E9E9"/>
<path d="M21.1993 8.33337C22.5118 8.33687 23.178 8.34387 23.7532 8.36021L23.9795 8.36837C24.2408 8.37771 24.4987 8.38937 24.8102 8.40337C26.0515 8.46171 26.8985 8.65771 27.6417 8.94587C28.4117 9.24221 29.0603 9.64354 29.709 10.291C30.3023 10.8743 30.7613 11.5797 31.0542 12.3584C31.3423 13.1015 31.5383 13.9485 31.5967 15.191C31.6107 15.5014 31.6223 15.7592 31.6317 16.0217L31.6387 16.248C31.6562 16.822 31.6632 17.4882 31.6655 18.8007L31.6667 19.671V21.1994C31.6695 22.0503 31.6606 22.9013 31.6398 23.752L31.6328 23.9784C31.6235 24.2409 31.6118 24.4987 31.5978 24.809C31.5395 26.0515 31.3412 26.8974 31.0542 27.6417C30.7621 28.4208 30.303 29.1264 29.709 29.709C29.1256 30.3021 28.4202 30.7611 27.6417 31.0542C26.8985 31.3424 26.0515 31.5384 24.8102 31.5967C24.5333 31.6097 24.2565 31.6214 23.9795 31.6317L23.7532 31.6387C23.178 31.655 22.5118 31.6632 21.1993 31.6655L20.329 31.6667H18.8018C17.9505 31.6696 17.0991 31.6607 16.248 31.6399L16.0217 31.6329C15.7447 31.6224 15.4678 31.6103 15.191 31.5967C13.9497 31.5384 13.1027 31.3424 12.3583 31.0542C11.5798 30.7618 10.8746 30.3027 10.2922 29.709C9.6984 29.126 9.23894 28.4205 8.94585 27.6417C8.65768 26.8985 8.46168 26.0515 8.40335 24.809C8.39035 24.5322 8.37868 24.2553 8.36835 23.9784L8.36251 23.752C8.34101 22.9013 8.33129 22.0504 8.33335 21.1994V18.8007C8.33009 17.9497 8.33865 17.0988 8.35901 16.248L8.36718 16.0217C8.37651 15.7592 8.38818 15.5014 8.40218 15.191C8.46051 13.9485 8.65651 13.1027 8.94468 12.3584C9.23764 11.5789 9.69802 10.8732 10.2933 10.291C10.8756 9.69776 11.5803 9.23869 12.3583 8.94587C13.1027 8.65771 13.9485 8.46171 15.191 8.40337C15.5013 8.38937 15.7603 8.37771 16.0217 8.36837L16.248 8.36137C17.0987 8.34065 17.9497 8.3317 18.8007 8.33454L21.1993 8.33337ZM20 14.1667C18.4529 14.1667 16.9692 14.7813 15.8752 15.8753C14.7813 16.9692 14.1667 18.4529 14.1667 20C14.1667 21.5471 14.7813 23.0309 15.8752 24.1248C16.9692 25.2188 18.4529 25.8334 20 25.8334C21.5471 25.8334 23.0308 25.2188 24.1248 24.1248C25.2188 23.0309 25.8333 21.5471 25.8333 20C25.8333 18.4529 25.2188 16.9692 24.1248 15.8753C23.0308 14.7813 21.5471 14.1667 20 14.1667ZM20 16.5C20.4596 16.5 20.9148 16.5904 21.3394 16.7662C21.7641 16.9421 22.15 17.1998 22.4751 17.5248C22.8001 17.8497 23.058 18.2355 23.2339 18.6601C23.4099 19.0847 23.5005 19.5398 23.5006 19.9995C23.5007 20.4591 23.4102 20.9142 23.2344 21.3389C23.0586 21.7636 22.8008 22.1494 22.4759 22.4745C22.1509 22.7996 21.7651 23.0574 21.3405 23.2334C20.9159 23.4094 20.4608 23.5 20.0012 23.5C19.0729 23.5 18.1827 23.1313 17.5263 22.4749C16.8699 21.8185 16.5012 20.9283 16.5012 20C16.5012 19.0718 16.8699 18.1815 17.5263 17.5252C18.1827 16.8688 19.0729 16.5 20.0012 16.5M26.1262 12.4167C25.7394 12.4167 25.3685 12.5704 25.095 12.8438C24.8215 13.1173 24.6678 13.4883 24.6678 13.875C24.6678 14.2618 24.8215 14.6327 25.095 14.9062C25.3685 15.1797 25.7394 15.3334 26.1262 15.3334C26.513 15.3334 26.8839 15.1797 27.1574 14.9062C27.4309 14.6327 27.5845 14.2618 27.5845 13.875C27.5845 13.4883 27.4309 13.1173 27.1574 12.8438C26.8839 12.5704 26.513 12.4167 26.1262 12.4167Z" fill="black"/>
<circle cx="80" cy="20" r="20" fill="#E9E9E9"/>
<g clip-path="url(#clip0_304_427)">
<path d="M81.875 32.36C87.8888 31.455 92.5 26.2663 92.5 20C92.5 13.0963 86.9037 7.5 80 7.5C73.0963 7.5 67.5 13.0963 67.5 20C67.5 26.2663 72.1112 31.4563 78.125 32.36V23.75H76.25C75.7527 23.75 75.2758 23.5525 74.9242 23.2008C74.5725 22.8492 74.375 22.3723 74.375 21.875C74.375 21.3777 74.5725 20.9008 74.9242 20.5492C75.2758 20.1975 75.7527 20 76.25 20H78.125V17.5C78.125 16.3397 78.5859 15.2269 79.4064 14.4064C80.2269 13.5859 81.3397 13.125 82.5 13.125H83.125C83.6223 13.125 84.0992 13.3225 84.4508 13.6742C84.8025 14.0258 85 14.5027 85 15C85 15.4973 84.8025 15.9742 84.4508 16.3258C84.0992 16.6775 83.6223 16.875 83.125 16.875H82.5C82.3342 16.875 82.1753 16.9408 82.0581 17.0581C81.9408 17.1753 81.875 17.3342 81.875 17.5V20H83.75C84.2473 20 84.7242 20.1975 85.0758 20.5492C85.4275 20.9008 85.625 21.3777 85.625 21.875C85.625 22.3723 85.4275 22.8492 85.0758 23.2008C84.7242 23.5525 84.2473 23.75 83.75 23.75H81.875V32.36Z" fill="black"/>
</g>
<circle cx="140" cy="20" r="20" fill="#E9E9E9"/>
<path d="M140.001 8.33337C146.445 8.33337 151.668 13.5565 151.668 20C151.668 26.4435 146.445 31.6667 140.001 31.6667C137.939 31.67 135.914 31.1244 134.133 30.0859L128.339 31.6667L129.917 25.8707C128.877 24.0891 128.331 22.0627 128.335 20C128.335 13.5565 133.558 8.33337 140.001 8.33337ZM136.025 14.5167L135.792 14.526C135.641 14.5352 135.493 14.5749 135.358 14.6427C135.231 14.7144 135.116 14.804 135.015 14.9087C134.875 15.0405 134.796 15.1549 134.71 15.2657C134.279 15.8268 134.046 16.5156 134.05 17.2234C134.052 17.795 134.202 18.3515 134.435 18.8719C134.912 19.9242 135.697 21.0384 136.733 22.0709C136.983 22.3194 137.228 22.569 137.492 22.8012C138.779 23.9346 140.313 24.7519 141.972 25.1882L142.634 25.2897C142.85 25.3014 143.066 25.285 143.283 25.2745C143.623 25.257 143.955 25.165 144.255 25.005C144.408 24.9263 144.557 24.8407 144.702 24.7484C144.702 24.7484 144.752 24.7157 144.848 24.6434C145.005 24.5267 145.102 24.4439 145.233 24.3074C145.329 24.207 145.413 24.0892 145.478 23.955C145.569 23.7649 145.66 23.402 145.697 23.0999C145.725 22.8689 145.717 22.7429 145.713 22.6647C145.709 22.5399 145.605 22.4104 145.492 22.3555L144.813 22.051C144.813 22.051 143.798 21.6089 143.177 21.3265C143.112 21.2982 143.042 21.282 142.972 21.2787C142.892 21.2705 142.811 21.2795 142.735 21.305C142.659 21.3306 142.589 21.3721 142.531 21.4269C142.525 21.4245 142.447 21.491 141.603 22.513C141.555 22.5781 141.488 22.6273 141.411 22.6543C141.335 22.6813 141.252 22.6849 141.174 22.6647C141.098 22.6443 141.023 22.6186 140.951 22.5877C140.806 22.527 140.756 22.5037 140.657 22.4617C139.987 22.1695 139.367 21.7747 138.819 21.2915C138.672 21.1632 138.536 21.0232 138.396 20.8879C137.937 20.4483 137.537 19.951 137.206 19.4085L137.137 19.2977C137.088 19.2232 137.048 19.1429 137.018 19.0585C136.974 18.887 137.089 18.7494 137.089 18.7494C137.089 18.7494 137.373 18.439 137.505 18.271C137.633 18.1077 137.741 17.949 137.811 17.8359C137.949 17.6142 137.992 17.3867 137.92 17.2105C137.593 16.4125 137.255 15.618 136.907 14.8294C136.838 14.673 136.634 14.561 136.449 14.5389C136.386 14.5319 136.323 14.5249 136.26 14.5202C136.103 14.5124 135.946 14.514 135.79 14.5249L136.025 14.5167Z" fill="black"/>
<circle cx="200" cy="20" r="20" fill="#E9E9E9"/>
<path d="M200.5 8.41663C193.83 8.41663 188.417 13.83 188.417 20.5C188.417 27.17 193.83 32.5833 200.5 32.5833C207.17 32.5833 212.583 27.17 212.583 20.5C212.583 13.83 207.17 8.41663 200.5 8.41663ZM206.107 16.6333C205.925 18.5425 205.14 23.1825 204.741 25.3212C204.572 26.2275 204.234 26.5295 203.92 26.5658C203.219 26.6262 202.687 26.1066 202.01 25.6595C200.947 24.9587 200.343 24.5237 199.316 23.847C198.12 23.0616 198.893 22.6266 199.582 21.9258C199.763 21.7445 202.856 18.9291 202.917 18.6754C202.925 18.6369 202.924 18.597 202.913 18.5591C202.903 18.5212 202.883 18.4865 202.856 18.4579C202.784 18.3975 202.687 18.4216 202.603 18.4337C202.494 18.4579 200.802 19.5816 197.503 21.805C197.02 22.1312 196.585 22.3004 196.198 22.2883C195.763 22.2762 194.942 22.0466 194.325 21.8412C193.564 21.5995 192.972 21.4666 193.02 21.0437C193.045 20.8262 193.347 20.6087 193.915 20.3791C197.443 18.8445 199.787 17.8295 200.959 17.3462C204.318 15.9445 205.007 15.7029 205.466 15.7029C205.563 15.7029 205.793 15.727 205.938 15.8479C206.058 15.9445 206.095 16.0775 206.107 16.1741C206.095 16.2466 206.119 16.4641 206.107 16.6333Z" fill="black"/>
<defs>
<clipPath id="clip0_304_427">
<rect width="30" height="30" fill="white" transform="translate(65 5)"/>
</clipPath>
</defs>
</svg>
